<?xml version="1.0" encoding="UTF-8" standalone="no"?>
<!DOCTYPE svg PUBLIC "-//W3C//DTD SVG 1.1//EN" "http://www.w3.org/Graphics/SVG/1.1/DTD/svg11.dtd">
<svg xmlns="http://www.w3.org/2000/svg" version="1.1" viewBox="0.00 0.00 500.00 500.00">
<g stroke-width="2.00" fill="none" stroke-linecap="butt">
<path stroke="#72b035" vector-effect="non-scaling-stroke" d="
  M 238.69 95.94
  Q 239.33 96.02 239.79 95.83"
/>
<path stroke="#72b035" vector-effect="non-scaling-stroke" d="
  M 242.03 95.86
  Q 242.74 96.08 243.20 96.04"
/>
<path stroke="#94c531" vector-effect="non-scaling-stroke" d="
  M 256.30 99.29
  L 258.26 105.09"
/>
<path stroke="#72b035" vector-effect="non-scaling-stroke" d="
  M 258.26 105.09
  Q 260.56 109.18 260.10 112.18"
/>
<path stroke="#609531" vector-effect="non-scaling-stroke" d="
  M 260.10 112.18
  Q 258.93 108.36 257.43 107.57
  Q 255.37 106.48 253.72 104.93"
/>
<path stroke="#84be34" vector-effect="non-scaling-stroke" d="
  M 216.84 118.24
  Q 216.79 118.10 216.77 117.98
  A 0.23 0.23 0.0 0 0 216.43 117.82
  Q 216.22 117.94 216.19 118.27
  Q 215.71 122.39 216.21 125.08
  A 0.76 0.76 0.0 0 1 214.78 125.55
  L 213.00 121.87
  A 1.40 1.30 31.5 0 1 212.86 121.37
  Q 212.53 117.09 212.07 111.49
  Q 211.53 104.94 215.06 100.50
  A 0.55 0.55 0.0 0 0 214.61 99.61
  Q 210.81 99.75 206.19 101.23
  Q 205.13 101.57 205.17 100.00"
/>
<path stroke="#72b035" vector-effect="non-scaling-stroke" d="
  M 213.04 96.34
  Q 212.50 96.26 212.01 96.40"
/>
<path stroke="#84be34" vector-effect="non-scaling-stroke" d="
  M 193.30 114.53
  L 195.85 119.25
  A 0.91 0.91 0.0 0 1 195.46 120.49
  C 193.21 121.60 190.66 123.21 188.71 125.54
  Q 184.98 129.95 178.53 134.01
  Q 178.21 134.21 175.82 136.66
  A 0.90 0.89 -34.0 0 0 175.63 137.62
  L 177.42 141.92
  A 0.74 0.74 0.0 0 0 178.47 142.28
  L 182.76 139.80
  A 1.36 1.34 -60.1 0 1 183.45 139.61
  L 188.34 139.58
  A 0.56 0.56 0.0 0 1 188.62 140.62
  Q 188.61 140.63 184.82 143.25
  C 183.26 144.33 182.29 145.77 182.11 147.49
  A 1.36 1.36 0.0 0 0 183.33 148.98
  Q 188.03 149.41 192.60 150.08
  Q 202.42 151.53 216.06 150.01
  Q 225.75 148.93 232.93 147.07
  Q 241.22 144.92 248.88 140.93"
/>
<path stroke="#72b035" vector-effect="non-scaling-stroke" d="
  M 248.88 140.93
  L 264.48 134.71
  A 3.37 3.14 29.6 0 1 265.49 134.47
  Q 270.94 134.06 274.50 137.00
  Q 279.62 141.23 277.63 148.36"
/>
<path stroke="#65a133" vector-effect="non-scaling-stroke" d="
  M 277.63 148.36
  Q 275.09 156.16 269.40 161.18"
/>
<path stroke="#609531" vector-effect="non-scaling-stroke" d="
  M 269.40 161.18
  L 260.67 167.05"
/>
<path stroke="#65a133" vector-effect="non-scaling-stroke" d="
  M 260.67 167.05
  Q 247.90 171.78 236.00 172.70
  C 225.09 173.53 212.07 173.47 200.51 171.45
  Q 190.63 169.73 185.69 168.31
  Q 183.36 167.64 175.53 164.96"
/>
<path stroke="#72b035" vector-effect="non-scaling-stroke" d="
  M 175.53 164.96
  L 171.51 163.46"
/>
<path stroke="#609531" vector-effect="non-scaling-stroke" d="
  M 162.27 155.61
  Q 165.66 154.13 166.76 154.26
  Q 172.13 154.93 176.88 156.66
  A 5.15 5.03 57.8 0 0 178.05 156.94
  C 182.44 157.44 186.87 159.02 191.67 159.17
  Q 200.41 159.45 208.22 159.37
  Q 213.98 159.31 220.70 157.90
  Q 229.18 156.13 232.93 154.93
  Q 237.95 153.34 244.74 149.48"
/>
<path stroke="#478735" vector-effect="non-scaling-stroke" d="
  M 216.50 119.74
  C 215.29 132.54 225.28 139.28 236.68 139.94
  A 2.78 2.52 36.5 0 0 237.57 139.85
  L 243.17 138.31"
/>
<path stroke="#59a239" vector-effect="non-scaling-stroke" d="
  M 243.95 138.57
  L 248.88 140.93"
/>
<path stroke="#276a33" vector-effect="non-scaling-stroke" d="
  M 249.93 204.69
  Q 252.59 197.41 252.64 193.35
  Q 252.72 186.96 252.85 183.74
  A 1.19 1.19 0.0 0 1 253.39 182.78
  C 256.23 180.88 253.33 176.61 256.50 174.48
  C 263.40 169.85 265.99 168.44 270.03 162.89
  A 0.81 0.75 69.5 0 0 270.17 162.55
  Q 270.29 161.63 269.40 161.18"
/>
<path stroke="#347936" vector-effect="non-scaling-stroke" d="
  M 260.10 112.18
  Q 260.28 118.33 256.84 122.60"
/>
<path stroke="#8b7322" vector-effect="non-scaling-stroke" d="
  M 246.87 136.24
  Q 253.38 129.79 252.36 122.52
  Q 251.26 114.62 243.86 110.46
  C 234.82 105.38 221.35 112.05 220.16 122.60
  C 219.32 130.11 223.30 135.18 230.27 137.64
  Q 238.50 140.54 246.87 136.24"
/>
<path stroke="#398538" vector-effect="non-scaling-stroke" d="
  M 175.53 164.96
  Q 175.02 165.16 174.23 165.06"
/>
<path stroke="#59a239" vector-effect="non-scaling-stroke" d="
  M 295.05 167.54
  L 295.11 172.58
  A 1.37 1.34 64.0 0 1 294.82 173.45
  C 282.65 188.64 267.99 200.80 253.79 213.95"
/>
<path stroke="#72b035" vector-effect="non-scaling-stroke" d="
  M 253.79 213.95
  Q 252.13 215.74 253.76 217.20"
/>
<path stroke="#59a239" vector-effect="non-scaling-stroke" d="
  M 253.76 217.20
  L 253.78 218.79"
/>
<path stroke="#72b035" vector-effect="non-scaling-stroke" d="
  M 253.78 218.79
  L 253.01 219.44"
/>
<path stroke="#59a239" vector-effect="non-scaling-stroke" d="
  M 253.01 219.44
  Q 251.80 221.10 250.03 222.02"
/>
<path stroke="#72b035" vector-effect="non-scaling-stroke" d="
  M 250.03 222.02
  Q 248.70 221.68 247.68 222.70
  Q 246.83 223.56 247.52 224.49"
/>
<path stroke="#59a239" vector-effect="non-scaling-stroke" d="
  M 247.52 224.49
  L 248.10 226.74"
/>
<path stroke="#72b035" vector-effect="non-scaling-stroke" d="
  M 248.10 226.74
  Q 248.04 226.89 247.97 227.04"
/>
<path stroke="#59a239" vector-effect="non-scaling-stroke" d="
  M 247.97 227.04
  L 247.67 228.88
  A 0.59 0.58 5.1 0 1 247.08 229.37
  Q 246.29 229.36 245.47 229.06"
/>
<path stroke="#72b035" vector-effect="non-scaling-stroke" d="
  M 245.47 229.06
  C 243.32 228.73 241.80 230.36 242.27 232.49"
/>
<path stroke="#59a239" vector-effect="non-scaling-stroke" d="
  M 242.27 232.49
  L 242.12 233.54
  A 0.34 0.34 0.0 0 1 241.66 233.81
  Q 241.38 233.71 241.11 233.36
  A 1.35 0.77 55.3 0 0 239.82 232.74
  Q 238.31 233.51 238.84 233.64"
/>
<path stroke="#72b035" vector-effect="non-scaling-stroke" d="
  M 238.84 233.64
  L 238.52 234.06"
/>
<path stroke="#59a239" vector-effect="non-scaling-stroke" d="
  M 238.52 234.06
  Q 238.34 235.74 239.04 237.35
  A 0.67 0.67 0.0 0 1 238.42 238.29
  Q 237.45 238.28 236.27 237.15"
/>
<path stroke="#72b035" vector-effect="non-scaling-stroke" d="
  M 236.27 237.15
  Q 235.61 237.09 235.02 236.77
  A 0.47 0.47 0.0 0 1 234.87 236.07
  C 237.61 232.44 240.88 229.05 243.20 225.23
  Q 246.05 220.53 248.11 216.68
  A 0.45 0.45 0.0 0 0 247.43 216.11
  L 240.73 221.31"
/>
<path stroke="#347936" vector-effect="non-scaling-stroke" d="
  M 240.73 221.31
  Q 243.41 215.94 246.85 211.12
  Q 247.81 209.76 249.93 204.69"
/>
<path stroke="#398538" vector-effect="non-scaling-stroke" d="
  M 249.93 204.69
  L 252.33 205.64
  A 0.51 0.50 -63.7 0 0 252.94 205.43
  Q 255.50 201.06 256.50 196.21
  C 257.57 191.02 259.26 186.75 261.16 182.16
  A 6.86 6.74 79.6 0 1 262.71 179.87
  Q 268.34 174.41 274.29 163.06
  Q 278.46 155.11 277.63 148.36"
/>
<path stroke="#68aa36" vector-effect="non-scaling-stroke" d="
  M 307.00 186.21
  Q 306.77 187.10 307.23 187.27"
/>
<path stroke="#7bb835" vector-effect="non-scaling-stroke" d="
  M 307.22 207.40
  Q 304.47 212.35 299.34 213.92
  A 1.52 1.45 -41.1 0 1 298.39 213.88
  L 295.89 212.87
  A 1.14 1.14 0.0 0 1 295.28 212.26
  C 292.07 204.50 294.28 200.25 296.60 192.50
  Q 298.70 185.47 297.10 179.02
  Q 296.17 175.24 295.88 173.32
  Q 295.45 170.43 295.05 167.54"
/>
<path stroke="#68aa36" vector-effect="non-scaling-stroke" d="
  M 295.05 167.54
  Q 292.53 142.23 278.09 121.44
  Q 270.56 110.59 259.20 103.21
  A 0.49 0.49 0.0 0 0 258.45 103.56
  L 258.26 105.09"
/>
<path stroke="#609531" vector-effect="non-scaling-stroke" d="
  M 240.73 221.31
  Q 238.02 226.01 231.50 234.01
  Q 229.73 236.17 221.16 248.72
  C 214.27 258.82 209.77 268.20 206.25 278.97
  Q 205.46 281.39 205.25 284.00"
/>
<path stroke="#347936" vector-effect="non-scaling-stroke" d="
  M 238.67 214.91
  Q 241.32 212.65 242.24 210.03
  Q 243.98 205.09 244.71 198.26"
/>
<path stroke="#568f32" vector-effect="non-scaling-stroke" d="
  M 244.71 198.26
  Q 244.65 197.19 244.42 197.10
  Q 243.58 196.74 242.55 196.92"
/>
<path stroke="#276a33" vector-effect="non-scaling-stroke" d="
  M 227.84 177.29
  C 231.98 176.60 236.55 176.78 240.13 176.05
  Q 251.27 173.77 260.67 167.05"
/>
<path stroke="#478735" vector-effect="non-scaling-stroke" d="
  M 307.29 210.23
  Q 306.69 211.90 305.27 217.28
  Q 302.54 227.62 296.29 237.45"
/>
<path stroke="#7bb835" vector-effect="non-scaling-stroke" d="
  M 253.66 298.22
  L 250.32 294.18
  A 1.01 1.00 -28.7 0 0 249.25 293.87
  Q 245.81 294.98 246.36 298.55
  A 1.03 1.03 0.0 0 0 246.87 299.30
  L 252.71 302.62"
/>
<path stroke="#59a239" vector-effect="non-scaling-stroke" d="
  M 252.71 302.62
  C 251.77 306.09 250.05 308.98 246.86 310.79
  C 242.36 313.33 239.88 318.10 238.01 322.99
  A 1.70 1.66 -6.1 0 1 237.33 323.81
  L 214.18 338.56"
/>
<path stroke="#7bb835" vector-effect="non-scaling-stroke" d="
  M 214.18 338.56
  L 212.05 324.62
  A 2.31 2.29 -81.8 0 0 210.78 322.91
  L 200.60 318.07"
/>
<path stroke="#478735" vector-effect="non-scaling-stroke" d="
  M 200.60 318.07
  Q 200.69 315.91 199.71 313.55
  Q 196.22 305.20 193.79 298.72
  Q 191.18 291.80 189.03 288.44
  Q 185.96 283.64 181.93 279.58"
/>
<path stroke="#7bb835" vector-effect="non-scaling-stroke" d="
  M 181.93 279.58
  Q 185.18 275.72 189.25 273.15
  A 1.33 1.31 -42.1 0 1 190.77 273.22
  C 197.20 278.25 198.52 285.87 201.82 295.65
  Q 203.55 300.80 205.34 303.62
  C 207.26 306.65 210.18 307.82 213.54 309.52
  A 0.42 0.42 0.0 0 0 214.15 309.20
  L 214.57 306.08
  A 1.34 1.33 29.7 0 0 214.29 305.06
  L 212.06 302.28"
/>
<path stroke="#84be34" vector-effect="non-scaling-stroke" d="
  M 209.08 290.66
  Q 212.96 273.06 218.62 262.37
  Q 225.37 249.60 228.28 244.77
  Q 228.96 243.63 232.44 239.41
  A 1.00 0.99 30.4 0 1 233.58 239.12
  L 235.07 239.72
  A 0.79 0.78 -48.7 0 0 235.77 239.67
  Q 236.98 238.94 236.27 237.15"
/>
<path stroke="#84be34" vector-effect="non-scaling-stroke" d="
  M 238.52 234.06
  Q 238.45 234.90 238.99 235.22
  A 1.44 1.44 0.0 0 0 241.17 233.88
  Q 241.11 233.12 240.02 233.21
  Q 239.36 233.26 238.84 233.64"
/>
<path stroke="#84be34" vector-effect="non-scaling-stroke" d="
  M 242.27 232.49
  C 245.26 235.98 249.32 230.57 245.47 229.06"
/>
<path stroke="#84be34" vector-effect="non-scaling-stroke" d="
  M 247.97 227.04
  C 247.18 230.07 250.87 230.26 252.29 228.74
  A 1.83 1.81 -57.1 0 0 251.68 225.81
  Q 249.73 225.01 248.10 226.74"
/>
<path stroke="#84be34" vector-effect="non-scaling-stroke" d="
  M 247.52 224.49
  Q 248.87 224.87 249.96 223.73
  Q 250.88 222.78 250.03 222.02"
/>
<path stroke="#84be34" vector-effect="non-scaling-stroke" d="
  M 253.01 219.44
  Q 252.77 220.82 253.75 221.24
  Q 254.89 221.74 255.48 220.76
  A 1.33 1.33 0.0 0 0 254.76 218.80
  Q 254.43 218.69 253.78 218.79"
/>
<path stroke="#84be34" vector-effect="non-scaling-stroke" d="
  M 253.76 217.20
  Q 256.79 217.71 257.41 214.96
  A 1.62 1.62 0.0 0 0 255.44 213.03
  Q 254.42 213.28 253.79 213.95"
/>
<path stroke="#68aa36" vector-effect="non-scaling-stroke" d="
  M 244.71 198.26
  Q 240.19 199.86 235.02 199.59"
/>
<path stroke="#568f32" vector-effect="non-scaling-stroke" d="
  M 200.60 318.07
  Q 200.73 325.32 202.46 331.30
  C 207.05 347.24 216.66 363.25 229.00 373.72"
/>
<path stroke="#347936" vector-effect="non-scaling-stroke" d="
  M 229.00 373.72
  Q 234.06 378.86 241.30 383.28"
/>
<path stroke="#347936" vector-effect="non-scaling-stroke" d="
  M 304.51 230.67
  Q 303.78 236.40 302.62 241.96
  Q 301.85 245.66 302.35 248.47
  C 303.47 254.72 310.12 257.56 315.60 257.77
  Q 323.62 258.07 330.04 259.15
  A 1.65 1.65 0.0 0 0 331.96 257.55
  Q 331.99 255.03 333.06 255.05"
/>
<path stroke="#347936" vector-effect="non-scaling-stroke" d="
  M 275.79 299.33
  L 271.58 306.55
  A 0.97 0.97 0.0 0 1 270.85 307.04
  Q 267.60 307.44 264.64 309.62
  Q 260.70 312.55 253.79 317.76
  Q 248.31 321.89 244.71 327.67"
/>
<path stroke="#68aa36" vector-effect="non-scaling-stroke" d="
  M 245.54 341.34
  Q 245.75 358.30 259.66 370.23"
/>
<path stroke="#68aa36" vector-effect="non-scaling-stroke" d="
  M 229.00 373.72
  Q 218.14 356.92 214.18 338.56"
/>
<path stroke="#68aa36" vector-effect="non-scaling-stroke" d="
  M 252.71 302.62
  Q 255.00 301.27 254.02 300.04"
/>
<path stroke="#568f32" vector-effect="non-scaling-stroke" d="
  M 181.93 279.58
  C 175.14 274.01 168.17 275.91 166.65 284.95
  C 165.15 293.86 166.04 302.97 167.21 311.53
  Q 167.55 314.04 168.62 316.48
  A 0.66 0.66 0.0 0 1 167.69 317.32
  Q 165.36 316.01 165.26 313.51"
/>
<path stroke="#68aa36" vector-effect="non-scaling-stroke" d="
  M 161.06 279.07
  Q 161.35 278.53 161.14 277.93"
/>
<path stroke="#347936" vector-effect="non-scaling-stroke" d="
  M 178.98 215.74
  C 179.78 221.73 183.61 222.60 187.11 225.91
  Q 191.73 230.27 197.34 234.16
  C 202.19 237.52 209.48 236.35 214.18 233.45
  C 218.35 230.88 221.00 223.54 225.21 222.15
  Q 231.11 220.22 236.52 216.35"
/>
<path stroke="#276a33" vector-effect="non-scaling-stroke" d="
  M 389.19 321.96
  Q 388.95 322.52 389.08 323.29"
/>
<path stroke="#276a33" vector-effect="non-scaling-stroke" d="
  M 388.97 323.54
  Q 388.80 324.22 388.89 325.01"
/>
<path stroke="#276a33" vector-effect="non-scaling-stroke" d="
  M 387.84 331.68
  Q 385.14 336.85 383.49 342.43
  Q 382.14 346.97 380.82 349.17
  C 376.00 357.14 370.53 364.63 364.37 372.10
  Q 361.23 375.91 353.64 382.29
  C 340.10 393.69 320.26 399.19 302.95 399.64
  Q 292.44 399.90 285.54 398.89
  C 270.37 396.65 254.67 391.91 241.30 383.28"
/>
<path stroke="#398538" vector-effect="non-scaling-stroke" d="
  M 241.30 383.28
  L 259.66 370.23"
/>
<path stroke="#5b9b34" vector-effect="non-scaling-stroke" d="
  M 259.66 370.23
  Q 274.38 382.05 293.26 383.48
  Q 331.65 386.37 356.72 357.51
  Q 370.87 341.22 375.59 319.80
  Q 376.90 313.84 375.90 308.55"
/>
<path stroke="#609531" vector-effect="non-scaling-stroke" d="
  M 270.98 340.82
  Q 270.91 341.19 270.89 341.22
  A 0.56 0.55 55.1 0 1 269.90 341.04
  Q 269.63 340.08 270.36 339.31
  C 278.02 331.16 289.62 315.35 288.05 304.23
  C 287.43 299.86 280.96 300.38 277.08 301.16
  A 0.80 0.79 75.9 0 1 276.17 300.61
  L 275.79 299.33"
/>
<path stroke="#72b035" vector-effect="non-scaling-stroke" d="
  M 275.79 299.33
  Q 275.09 296.46 273.57 293.01
  A 1.81 1.81 0.0 0 1 274.25 290.75
  Q 276.07 289.58 275.93 287.13"
/>
<path stroke="#68aa36" vector-effect="non-scaling-stroke" d="
  M 321.60 250.39
  Q 318.99 251.99 316.13 252.29
  A 1.35 1.34 57.8 0 1 315.31 252.10
  L 310.19 248.84
  A 0.78 0.73 9.3 0 1 309.88 248.44
  Q 308.38 244.03 308.62 242.33
  Q 309.84 233.49 307.12 224.75"
/>
<path stroke="#84be34" vector-effect="non-scaling-stroke" d="
  M 168.84 144.25
  Q 168.20 145.59 167.98 147.48
  A 0.89 0.89 0.0 0 0 168.43 148.36
  Q 169.60 149.01 171.40 149.16
  A 1.36 1.35 23.6 0 0 172.52 148.73
  C 174.27 146.81 176.51 145.05 173.88 142.58"
/>
<path stroke="#609531" vector-effect="non-scaling-stroke" d="
  M 173.88 142.58
  Q 173.37 141.18 171.76 141.33
  Q 169.34 141.55 168.84 144.25"
/>
<path stroke="#478735" vector-effect="non-scaling-stroke" d="
  M 173.88 142.58
  Q 170.41 146.20 168.84 144.25"
/>
<path stroke="#84be34" vector-effect="non-scaling-stroke" d="
  M 206.8820 104.5206
  A 1.57 1.35 -177.1 0 0 208.3817 105.9483
  A 1.57 1.35 -177.1 0 0 210.0180 104.6794
  A 1.57 1.35 -177.1 0 0 208.5183 103.2517
  A 1.57 1.35 -177.1 0 0 206.8820 104.5206"
/>
<path stroke="#84be34" vector-effect="non-scaling-stroke" d="
  M 205.38 109.68
  A 0.27 0.27 0.0 0 1 205.13 109.23
  Q 206.80 107.30 205.76 105.65
  A 2.05 1.80 -45.5 0 0 202.53 105.89
  Q 201.06 108.07 203.31 109.94
  A 0.90 0.89 24.2 0 1 203.62 110.75
  Q 203.53 111.28 203.32 111.88
  A 1.48 1.41 -87.6 0 0 205.01 113.81
  Q 207.06 113.22 207.73 111.26
  A 0.81 0.80 27.2 0 0 207.43 110.34
  Q 206.26 109.54 205.38 109.68"
/>
<path stroke="#84be34" vector-effect="non-scaling-stroke" d="
  M 199.2686 109.3688
  A 1.65 1.28 -106.6 0 0 198.5133 111.3157
  A 1.65 1.28 -106.6 0 0 200.2114 112.5312
  A 1.65 1.28 -106.6 0 0 200.9667 110.5843
  A 1.65 1.28 -106.6 0 0 199.2686 109.3688"
/>
<path stroke="#84be34" vector-effect="non-scaling-stroke" d="
  M 202.1712 114.7551
  A 2.23 2.03 -23.1 0 0 199.3236 113.7628
  A 2.23 2.03 -23.1 0 0 198.0688 116.5049
  A 2.23 2.03 -23.1 0 0 200.9164 117.4972
  A 2.23 2.03 -23.1 0 0 202.1712 114.7551"
/>
<path stroke="#84be34" vector-effect="non-scaling-stroke" d="
  M 203.2326 116.3407
  A 1.68 1.50 -127.7 0 0 203.0732 118.5873
  A 1.68 1.50 -127.7 0 0 205.2874 118.9993
  A 1.68 1.50 -127.7 0 0 205.4468 116.7527
  A 1.68 1.50 -127.7 0 0 203.2326 116.3407"
/>
<path stroke="#84be34" vector-effect="non-scaling-stroke" d="
  M 200.08 126.00
  L 200.08 124.22
  A 0.68 0.68 0.0 0 0 199.41 123.54
  L 197.98 123.53
  A 2.01 1.41 0.3 0 0 195.96 124.93
  L 195.96 125.25
  A 2.01 1.41 0.3 0 0 197.96 126.67
  L 199.39 126.68
  A 0.68 0.68 0.0 0 0 200.08 126.00"
/>
<path stroke="#84be34" vector-effect="non-scaling-stroke" d="
  M 195.6910 129.4110
  A 1.17 0.98 -177.6 0 0 196.8190 130.4391
  A 1.17 0.98 -177.6 0 0 198.0290 129.5090
  A 1.17 0.98 -177.6 0 0 196.9010 128.4809
  A 1.17 0.98 -177.6 0 0 195.6910 129.4110"
/>
<path stroke="#94c531" vector-effect="non-scaling-stroke" d="
  M 296.6884 151.5662
  A 1.44 0.94 -117.8 0 0 296.5285 153.2784
  A 1.44 0.94 -117.8 0 0 298.0316 154.1138
  A 1.44 0.94 -117.8 0 0 298.1915 152.4016
  A 1.44 0.94 -117.8 0 0 296.6884 151.5662"
/>
<path stroke="#94c531" vector-effect="non-scaling-stroke" d="
  M 297.5088 155.2387
  A 2.11 1.64 -95.2 0 0 296.0667 157.4886
  A 2.11 1.64 -95.2 0 0 297.8912 159.4413
  A 2.11 1.64 -95.2 0 0 299.3333 157.1914
  A 2.11 1.64 -95.2 0 0 297.5088 155.2387"
/>
<path stroke="#94c531" vector-effect="non-scaling-stroke" d="
  M 300.5968 161.2370
  A 1.69 1.18 -95.2 0 0 299.5749 163.0269
  A 1.69 1.18 -95.2 0 0 300.9032 164.6030
  A 1.69 1.18 -95.2 0 0 301.9251 162.8131
  A 1.69 1.18 -95.2 0 0 300.5968 161.2370"
/>
<path stroke="#94c531" vector-effect="non-scaling-stroke" d="
  M 301.1250 166.9016
  A 2.76 1.88 -104.8 0 0 300.0124 170.0502
  A 2.76 1.88 -104.8 0 0 302.5350 172.2384
  A 2.76 1.88 -104.8 0 0 303.6476 169.0898
  A 2.76 1.88 -104.8 0 0 301.1250 166.9016"
/>
<path stroke="#94c531" vector-effect="non-scaling-stroke" d="
  M 299.0540 173.5509
  A 1.69 1.19 -91.9 0 0 297.9207 175.2795
  A 1.69 1.19 -91.9 0 0 299.1660 176.9291
  A 1.69 1.19 -91.9 0 0 300.2993 175.2005
  A 1.69 1.19 -91.9 0 0 299.0540 173.5509"
/>
<path stroke="#94c531" vector-effect="non-scaling-stroke" d="
  M 302.7566 178.8608
  A 1.85 1.38 -81.4 0 0 301.1155 180.4836
  A 1.85 1.38 -81.4 0 0 302.2034 182.5192
  A 1.85 1.38 -81.4 0 0 303.8445 180.8964
  A 1.85 1.38 -81.4 0 0 302.7566 178.8608"
/>
<path stroke="#94c531" vector-effect="non-scaling-stroke" d="
  M 303.7144 184.5598
  A 2.48 1.78 -78.5 0 0 301.4757 186.6351
  A 2.48 1.78 -78.5 0 0 302.7256 189.4202
  A 2.48 1.78 -78.5 0 0 304.9643 187.3449
  A 2.48 1.78 -78.5 0 0 303.7144 184.5598"
/>
<path stroke="#94c531" vector-effect="non-scaling-stroke" d="
  M 301.6744 191.6031
  A 1.20 1.20 0.0 0 0 300.5700 190.3146
  L 299.2938 190.2164
  A 1.20 1.20 0.0 0 0 298.0053 191.3208
  L 297.9056 192.6169
  A 1.20 1.20 0.0 0 0 299.0100 193.9054
  L 300.2862 194.0036
  A 1.20 1.20 0.0 0 0 301.5747 192.8992
  L 301.6744 191.6031"
/>
<path stroke="#94c531" vector-effect="non-scaling-stroke" d="
  M 303.5901 195.0222
  A 2.61 2.26 -64.1 0 0 300.4170 196.3828
  A 2.61 2.26 -64.1 0 0 301.3099 199.7178
  A 2.61 2.26 -64.1 0 0 304.4830 198.3572
  A 2.61 2.26 -64.1 0 0 303.5901 195.0222"
/>
<path stroke="#94c531" vector-effect="non-scaling-stroke" d="
  M 303.1906 202.6945
  A 1.75 1.22 -74.4 0 0 301.5449 204.0519
  A 1.75 1.22 -74.4 0 0 302.2494 206.0655
  A 1.75 1.22 -74.4 0 0 303.8951 204.7081
  A 1.75 1.22 -74.4 0 0 303.1906 202.6945"
/>
<path stroke="#94c531" vector-effect="non-scaling-stroke" d="
  M 298.7410 206.5716
  A 2.11 1.27 -87.8 0 0 297.3909 208.6312
  A 2.11 1.27 -87.8 0 0 298.5790 210.7884
  A 2.11 1.27 -87.8 0 0 299.9291 208.7288
  A 2.11 1.27 -87.8 0 0 298.7410 206.5716"
/>
<path stroke="#8b7322" vector-effect="non-scaling-stroke" d="
  M 237.42 116.33
  Q 230.01 117.84 229.55 124.80"
/>
<path stroke="#8b7322" vector-effect="non-scaling-stroke" d="
  M 230.25 128.76
  Q 232.79 133.06 236.58 132.65
  Q 245.49 131.70 242.48 122.29"
/>
<path stroke="#84be34" vector-effect="non-scaling-stroke" d="
  M 243.6725 238.3887
  A 1.10 1.10 0.0 0 0 242.7148 237.1629
  L 242.0001 237.0751
  A 1.10 1.10 0.0 0 0 240.7743 238.0329
  L 240.7475 238.2513
  A 1.10 1.10 0.0 0 0 241.7052 239.4771
  L 242.4199 239.5649
  A 1.10 1.10 0.0 0 0 243.6457 238.6071
  L 243.6725 238.3887"
/>
<path stroke="#84be34" vector-effect="non-scaling-stroke" d="
  M 240.7885 241.7784
  A 1.77 1.37 -18.5 0 0 238.6753 241.0408
  A 1.77 1.37 -18.5 0 0 237.4315 242.9016
  A 1.77 1.37 -18.5 0 0 239.5447 243.6392
  A 1.77 1.37 -18.5 0 0 240.7885 241.7784"
/>
<path stroke="#84be34" vector-effect="non-scaling-stroke" d="
  M 268.4755 241.0326
  A 1.93 1.04 -58.6 0 0 266.5823 242.1381
  A 1.93 1.04 -58.6 0 0 266.4645 244.3274
  A 1.93 1.04 -58.6 0 0 268.3577 243.2219
  A 1.93 1.04 -58.6 0 0 268.4755 241.0326"
/>
<path stroke="#84be34" vector-effect="non-scaling-stroke" d="
  M 235.3591 242.2072
  A 2.73 2.26 -33.4 0 0 231.8359 241.8232
  A 2.73 2.26 -33.4 0 0 230.8009 245.2128
  A 2.73 2.26 -33.4 0 0 234.3241 245.5968
  A 2.73 2.26 -33.4 0 0 235.3591 242.2072"
/>
<path stroke="#84be34" vector-effect="non-scaling-stroke" d="
  M 240.6914 246.1697
  A 1.33 1.03 -177.4 0 0 241.9733 247.2589
  A 1.33 1.03 -177.4 0 0 243.3486 246.2903
  A 1.33 1.03 -177.4 0 0 242.0667 245.2011
  A 1.33 1.03 -177.4 0 0 240.6914 246.1697"
/>
<path stroke="#84be34" vector-effect="non-scaling-stroke" d="
  M 235.6985 248.3954
  A 1.86 1.21 -2.3 0 0 233.7914 247.2610
  A 1.86 1.21 -2.3 0 0 231.9815 248.5446
  A 1.86 1.21 -2.3 0 0 233.8886 249.6790
  A 1.86 1.21 -2.3 0 0 235.6985 248.3954"
/>
<path stroke="#84be34" vector-effect="non-scaling-stroke" d="
  M 229.36 252.71
  A 1.87 1.87 0.0 0 0 227.49 250.84
  A 1.87 1.87 0.0 0 0 225.62 252.71
  A 1.87 1.87 0.0 0 0 227.49 254.58
  A 1.87 1.87 0.0 0 0 229.36 252.71"
/>
<path stroke="#84be34" vector-effect="non-scaling-stroke" d="
  M 239.1176 251.7471
  A 2.51 2.02 -24.3 0 0 235.9987 250.9390
  A 2.51 2.02 -24.3 0 0 234.5424 253.8129
  A 2.51 2.02 -24.3 0 0 237.6613 254.6210
  A 2.51 2.02 -24.3 0 0 239.1176 251.7471"
/>
<path stroke="#84be34" vector-effect="non-scaling-stroke" d="
  M 224.3160 256.7245
  A 2.18 1.77 -68.3 0 0 221.8654 258.0955
  A 2.18 1.77 -68.3 0 0 222.7040 260.7755
  A 2.18 1.77 -68.3 0 0 225.1546 259.4045
  A 2.18 1.77 -68.3 0 0 224.3160 256.7245"
/>
<path stroke="#84be34" vector-effect="non-scaling-stroke" d="
  M 256.7743 257.0570
  A 1.36 1.06 -74.9 0 0 255.3966 258.0939
  A 1.36 1.06 -74.9 0 0 256.0657 259.6830
  A 1.36 1.06 -74.9 0 0 257.4434 258.6461
  A 1.36 1.06 -74.9 0 0 256.7743 257.0570"
/>
<path stroke="#84be34" vector-effect="non-scaling-stroke" d="
  M 229.0932 259.4938
  A 2.08 1.59 -47.2 0 0 226.5134 259.9397
  A 2.08 1.59 -47.2 0 0 226.2668 262.5462
  A 2.08 1.59 -47.2 0 0 228.8466 262.1003
  A 2.08 1.59 -47.2 0 0 229.0932 259.4938"
/>
<path stroke="#84be34" vector-effect="non-scaling-stroke" d="
  M 260.8862 265.4207
  A 2.48 1.80 -57.4 0 0 258.0336 266.5402
  A 2.48 1.80 -57.4 0 0 258.2138 269.5993
  A 2.48 1.80 -57.4 0 0 261.0664 268.4798
  A 2.48 1.80 -57.4 0 0 260.8862 265.4207"
/>
<path stroke="#84be34" vector-effect="non-scaling-stroke" d="
  M 223.1279 266.7956
  A 3.06 2.75 -34.3 0 0 219.0503 266.2482
  A 3.06 2.75 -34.3 0 0 218.0721 270.2444
  A 3.06 2.75 -34.3 0 0 222.1497 270.7918
  A 3.06 2.75 -34.3 0 0 223.1279 266.7956"
/>
<path stroke="#84be34" vector-effect="non-scaling-stroke" d="
  M 219.1567 272.9028
  A 2.20 1.84 -60.1 0 0 216.4649 273.8928
  A 2.20 1.84 -60.1 0 0 216.9633 276.7172
  A 2.20 1.84 -60.1 0 0 219.6551 275.7272
  A 2.20 1.84 -60.1 0 0 219.1567 272.9028"
/>
<path stroke="#84be34" vector-effect="non-scaling-stroke" d="
  M 218.9439 280.6952
  A 2.58 2.03 -44.7 0 0 215.6821 281.0671
  A 2.58 2.03 -44.7 0 0 215.2761 284.3248
  A 2.58 2.03 -44.7 0 0 218.5379 283.9529
  A 2.58 2.03 -44.7 0 0 218.9439 280.6952"
/>
<path stroke="#84be34" vector-effect="non-scaling-stroke" d="
  M 223.0996 281.5219
  A 1.22 0.80 -61.1 0 0 221.8096 282.2034
  A 1.22 0.80 -61.1 0 0 221.9204 283.6581
  A 1.22 0.80 -61.1 0 0 223.2104 282.9766
  A 1.22 0.80 -61.1 0 0 223.0996 281.5219"
/>
<path stroke="#84be34" vector-effect="non-scaling-stroke" d="
  M 216.1523 288.4579
  A 1.30 1.08 -62.4 0 0 214.5929 289.1096
  A 1.30 1.08 -62.4 0 0 214.9477 290.7621
  A 1.30 1.08 -62.4 0 0 216.5071 290.1104
  A 1.30 1.08 -62.4 0 0 216.1523 288.4579"
/>
<path stroke="#7bb835" vector-effect="non-scaling-stroke" d="
  M 239.63 294.43
  L 242.39 295.62
  A 1.08 1.08 0.0 0 0 243.81 295.06
  L 243.87 294.91
  A 5.20 2.44 -66.6 0 0 243.70 289.17
  L 243.44 289.06
  A 5.20 2.44 -66.6 0 0 239.14 292.86
  L 239.07 293.01
  A 1.08 1.08 0.0 0 0 239.63 294.43"
/>
<path stroke="#84be34" vector-effect="non-scaling-stroke" d="
  M 234.15 308.03
  A 0.42 0.42 0.0 0 0 234.95 307.93
  L 235.49 303.92
  A 1.26 1.25 -6.9 0 1 236.28 302.92
  Q 237.58 302.40 238.10 302.10
  Q 238.87 301.65 238.47 301.08
  A 1.28 1.21 -62.9 0 0 236.25 301.87
  Q 236.19 303.30 234.29 303.19
  A 1.39 1.38 80.5 0 0 232.93 305.10
  L 234.15 308.03"
/>
<path stroke="#7bb835" vector-effect="non-scaling-stroke" d="
  M 248.1046 302.2056
  A 2.60 2.18 -27.1 0 0 244.7969 301.4493
  A 2.60 2.18 -27.1 0 0 243.4754 304.5744
  A 2.60 2.18 -27.1 0 0 246.7831 305.3307
  A 2.60 2.18 -27.1 0 0 248.1046 302.2056"
/>
</g>
<path fill="#9dcb30" d="
  M 238.69 95.94
  Q 239.33 96.02 239.79 95.83
  L 242.03 95.86
  Q 242.74 96.08 243.20 96.04
  Q 251.01 96.33 256.30 99.29
  L 258.26 105.09
  Q 260.56 109.18 260.10 112.18
  Q 258.93 108.36 257.43 107.57
  Q 255.37 106.48 253.72 104.93
  Q 248.26 100.58 240.74 100.80
  Q 226.51 101.21 218.95 112.70
  Q 217.52 114.88 216.84 118.24
  Q 216.79 118.10 216.77 117.98
  A 0.23 0.23 0.0 0 0 216.43 117.82
  Q 216.22 117.94 216.19 118.27
  Q 215.71 122.39 216.21 125.08
  A 0.76 0.76 0.0 0 1 214.78 125.55
  L 213.00 121.87
  A 1.40 1.30 31.5 0 1 212.86 121.37
  Q 212.53 117.09 212.07 111.49
  Q 211.53 104.94 215.06 100.50
  A 0.55 0.55 0.0 0 0 214.61 99.61
  Q 210.81 99.75 206.19 101.23
  Q 205.13 101.57 205.17 100.00
  Q 211.02 96.84 217.39 97.66
  A 0.32 0.32 0.0 0 0 217.55 97.04
  Q 215.48 96.26 213.04 96.34
  Q 212.50 96.26 212.01 96.40
  Q 204.82 97.02 199.04 101.57
  Q 195.69 104.20 195.00 106.68
  Q 194.29 109.24 193.58 111.81
  Q 193.58 111.83 192.96 113.27
  Q 192.48 114.39 193.30 114.53
  L 195.85 119.25
  A 0.91 0.91 0.0 0 1 195.46 120.49
  C 193.21 121.60 190.66 123.21 188.71 125.54
  Q 184.98 129.95 178.53 134.01
  Q 178.21 134.21 175.82 136.66
  A 0.90 0.89 -34.0 0 0 175.63 137.62
  L 177.42 141.92
  A 0.74 0.74 0.0 0 0 178.47 142.28
  L 182.76 139.80
  A 1.36 1.34 -60.1 0 1 183.45 139.61
  L 188.34 139.58
  A 0.56 0.56 0.0 0 1 188.62 140.62
  Q 188.61 140.63 184.82 143.25
  C 183.26 144.33 182.29 145.77 182.11 147.49
  A 1.36 1.36 0.0 0 0 183.33 148.98
  Q 188.03 149.41 192.60 150.08
  Q 202.42 151.53 216.06 150.01
  Q 225.75 148.93 232.93 147.07
  Q 241.22 144.92 248.88 140.93
  L 264.48 134.71
  A 3.37 3.14 29.6 0 1 265.49 134.47
  Q 270.94 134.06 274.50 137.00
  Q 279.62 141.23 277.63 148.36
  Q 275.09 156.16 269.40 161.18
  L 260.67 167.05
  Q 247.90 171.78 236.00 172.70
  C 225.09 173.53 212.07 173.47 200.51 171.45
  Q 190.63 169.73 185.69 168.31
  Q 183.36 167.64 175.53 164.96
  L 171.51 163.46
  Q 169.43 162.59 166.44 160.57
  Q 163.70 158.72 162.27 155.61
  Q 165.66 154.13 166.76 154.26
  Q 172.13 154.93 176.88 156.66
  A 5.15 5.03 57.8 0 0 178.05 156.94
  C 182.44 157.44 186.87 159.02 191.67 159.17
  Q 200.41 159.45 208.22 159.37
  Q 213.98 159.31 220.70 157.90
  Q 229.18 156.13 232.93 154.93
  Q 237.95 153.34 244.74 149.48
  L 250.77 146.71
  A 0.07 0.07 0.0 0 0 250.76 146.58
  Q 250.60 146.54 250.50 146.58
  Q 234.67 152.45 218.54 154.81
  Q 205.82 156.67 186.96 155.24
  C 183.36 154.97 180.58 153.72 177.18 153.27
  Q 176.74 153.21 173.43 152.05
  C 169.47 150.65 163.33 149.33 159.84 152.40
  A 0.33 0.32 65.6 0 1 159.30 152.19
  C 158.68 146.70 159.81 143.70 164.18 140.08
  Q 169.47 135.69 170.65 134.90
  C 177.25 130.48 184.58 125.80 188.21 119.02
  Q 189.49 116.64 191.19 110.02
  C 194.20 98.37 207.46 92.48 218.71 96.22
  A 2.20 2.17 40.5 0 0 220.39 96.10
  Q 227.42 92.53 235.03 92.82
  A 0.06 0.06 0.0 0 1 235.04 92.93
  Q 233.05 93.47 229.45 94.68
  Q 220.14 97.80 215.72 106.71
  A 0.46 0.46 0.0 0 0 216.42 107.27
  Q 217.89 106.06 218.72 105.21
  Q 226.93 96.75 238.69 95.94
  Z
  M 168.84 144.25
  Q 168.20 145.59 167.98 147.48
  A 0.89 0.89 0.0 0 0 168.43 148.36
  Q 169.60 149.01 171.40 149.16
  A 1.36 1.35 23.6 0 0 172.52 148.73
  C 174.27 146.81 176.51 145.05 173.88 142.58
  Q 173.37 141.18 171.76 141.33
  Q 169.34 141.55 168.84 144.25
  Z"
/>
<path fill="#46943a" d="
  M 239.79 95.83
  Q 239.33 96.02 238.69 95.94
  Q 239.23 95.77 239.79 95.83
  Z"
/>
<path fill="#46943a" d="
  M 243.20 96.04
  Q 242.74 96.08 242.03 95.86
  Q 243.25 95.70 243.20 96.04
  Z"
/>
<path fill="#46943a" d="
  M 213.04 96.34
  L 212.01 96.40
  Q 212.50 96.26 213.04 96.34
  Z"
/>
<path fill="#6bb038" d="
  M 216.84 118.24
  L 216.50 119.74
  C 215.29 132.54 225.28 139.28 236.68 139.94
  A 2.78 2.52 36.5 0 0 237.57 139.85
  L 243.17 138.31
  L 243.95 138.57
  L 248.88 140.93
  Q 241.22 144.92 232.93 147.07
  Q 225.75 148.93 216.06 150.01
  Q 202.42 151.53 192.60 150.08
  Q 188.03 149.41 183.33 148.98
  A 1.36 1.36 0.0 0 1 182.11 147.49
  C 182.29 145.77 183.26 144.33 184.82 143.25
  Q 188.61 140.63 188.62 140.62
  A 0.56 0.56 0.0 0 0 188.34 139.58
  L 183.45 139.61
  A 1.36 1.34 -60.1 0 0 182.76 139.80
  L 178.47 142.28
  A 0.74 0.74 0.0 0 1 177.42 141.92
  L 175.63 137.62
  A 0.90 0.89 -34.0 0 1 175.82 136.66
  Q 178.21 134.21 178.53 134.01
  Q 184.98 129.95 188.71 125.54
  C 190.66 123.21 193.21 121.60 195.46 120.49
  A 0.91 0.91 0.0 0 0 195.85 119.25
  L 193.30 114.53
  Q 195.21 111.09 196.99 107.74
  Q 199.19 103.58 205.17 100.00
  Q 205.13 101.57 206.19 101.23
  Q 210.81 99.75 214.61 99.61
  A 0.55 0.55 0.0 0 1 215.06 100.50
  Q 211.53 104.94 212.07 111.49
  Q 212.53 117.09 212.86 121.37
  A 1.40 1.30 31.5 0 0 213.00 121.87
  L 214.78 125.55
  A 0.76 0.76 0.0 0 0 216.21 125.08
  Q 215.71 122.39 216.19 118.27
  Q 216.22 117.94 216.43 117.82
  A 0.23 0.23 0.0 0 1 216.77 117.98
  Q 216.79 118.10 216.84 118.24
  Z
  M 206.8820 104.5206
  A 1.57 1.35 -177.1 0 0 208.3817 105.9483
  A 1.57 1.35 -177.1 0 0 210.0180 104.6794
  A 1.57 1.35 -177.1 0 0 208.5183 103.2517
  A 1.57 1.35 -177.1 0 0 206.8820 104.5206
  Z
  M 205.38 109.68
  A 0.27 0.27 0.0 0 1 205.13 109.23
  Q 206.80 107.30 205.76 105.65
  A 2.05 1.80 -45.5 0 0 202.53 105.89
  Q 201.06 108.07 203.31 109.94
  A 0.90 0.89 24.2 0 1 203.62 110.75
  Q 203.53 111.28 203.32 111.88
  A 1.48 1.41 -87.6 0 0 205.01 113.81
  Q 207.06 113.22 207.73 111.26
  A 0.81 0.80 27.2 0 0 207.43 110.34
  Q 206.26 109.54 205.38 109.68
  Z
  M 199.2686 109.3688
  A 1.65 1.28 -106.6 0 0 198.5133 111.3157
  A 1.65 1.28 -106.6 0 0 200.2114 112.5312
  A 1.65 1.28 -106.6 0 0 200.9667 110.5843
  A 1.65 1.28 -106.6 0 0 199.2686 109.3688
  Z
  M 202.1712 114.7551
  A 2.23 2.03 -23.1 0 0 199.3236 113.7628
  A 2.23 2.03 -23.1 0 0 198.0688 116.5049
  A 2.23 2.03 -23.1 0 0 200.9164 117.4972
  A 2.23 2.03 -23.1 0 0 202.1712 114.7551
  Z
  M 203.2326 116.3407
  A 1.68 1.50 -127.7 0 0 203.0732 118.5873
  A 1.68 1.50 -127.7 0 0 205.2874 118.9993
  A 1.68 1.50 -127.7 0 0 205.4468 116.7527
  A 1.68 1.50 -127.7 0 0 203.2326 116.3407
  Z
  M 200.08 126.00
  L 200.08 124.22
  A 0.68 0.68 0.0 0 0 199.41 123.54
  L 197.98 123.53
  A 2.01 1.41 0.3 0 0 195.96 124.93
  L 195.96 125.25
  A 2.01 1.41 0.3 0 0 197.96 126.67
  L 199.39 126.68
  A 0.68 0.68 0.0 0 0 200.08 126.00
  Z
  M 195.6910 129.4110
  A 1.17 0.98 -177.6 0 0 196.8190 130.4391
  A 1.17 0.98 -177.6 0 0 198.0290 129.5090
  A 1.17 0.98 -177.6 0 0 196.9010 128.4809
  A 1.17 0.98 -177.6 0 0 195.6910 129.4110
  Z"
/>
<path fill="#8abf32" d="
  M 307.00 186.21
  Q 306.77 187.10 307.23 187.27
  L 307.22 207.40
  Q 304.47 212.35 299.34 213.92
  A 1.52 1.45 -41.1 0 1 298.39 213.88
  L 295.89 212.87
  A 1.14 1.14 0.0 0 1 295.28 212.26
  C 292.07 204.50 294.28 200.25 296.60 192.50
  Q 298.70 185.47 297.10 179.02
  Q 296.17 175.24 295.88 173.32
  Q 295.45 170.43 295.05 167.54
  Q 292.53 142.23 278.09 121.44
  Q 270.56 110.59 259.20 103.21
  A 0.49 0.49 0.0 0 0 258.45 103.56
  L 258.26 105.09
  L 256.30 99.29
  Q 264.45 104.19 273.20 111.80
  C 289.36 125.84 299.11 143.43 303.80 164.25
  Q 304.80 168.72 305.55 174.57
  Q 306.28 180.39 307.00 186.21
  Z
  M 296.6884 151.5662
  A 1.44 0.94 -117.8 0 0 296.5285 153.2784
  A 1.44 0.94 -117.8 0 0 298.0316 154.1138
  A 1.44 0.94 -117.8 0 0 298.1915 152.4016
  A 1.44 0.94 -117.8 0 0 296.6884 151.5662
  Z
  M 297.5088 155.2387
  A 2.11 1.64 -95.2 0 0 296.0667 157.4886
  A 2.11 1.64 -95.2 0 0 297.8912 159.4413
  A 2.11 1.64 -95.2 0 0 299.3333 157.1914
  A 2.11 1.64 -95.2 0 0 297.5088 155.2387
  Z
  M 300.5968 161.2370
  A 1.69 1.18 -95.2 0 0 299.5749 163.0269
  A 1.69 1.18 -95.2 0 0 300.9032 164.6030
  A 1.69 1.18 -95.2 0 0 301.9251 162.8131
  A 1.69 1.18 -95.2 0 0 300.5968 161.2370
  Z
  M 301.1250 166.9016
  A 2.76 1.88 -104.8 0 0 300.0124 170.0502
  A 2.76 1.88 -104.8 0 0 302.5350 172.2384
  A 2.76 1.88 -104.8 0 0 303.6476 169.0898
  A 2.76 1.88 -104.8 0 0 301.1250 166.9016
  Z
  M 299.0540 173.5509
  A 1.69 1.19 -91.9 0 0 297.9207 175.2795
  A 1.69 1.19 -91.9 0 0 299.1660 176.9291
  A 1.69 1.19 -91.9 0 0 300.2993 175.2005
  A 1.69 1.19 -91.9 0 0 299.0540 173.5509
  Z
  M 302.7566 178.8608
  A 1.85 1.38 -81.4 0 0 301.1155 180.4836
  A 1.85 1.38 -81.4 0 0 302.2034 182.5192
  A 1.85 1.38 -81.4 0 0 303.8445 180.8964
  A 1.85 1.38 -81.4 0 0 302.7566 178.8608
  Z
  M 303.7144 184.5598
  A 2.48 1.78 -78.5 0 0 301.4757 186.6351
  A 2.48 1.78 -78.5 0 0 302.7256 189.4202
  A 2.48 1.78 -78.5 0 0 304.9643 187.3449
  A 2.48 1.78 -78.5 0 0 303.7144 184.5598
  Z
  M 301.6744 191.6031
  A 1.20 1.20 0.0 0 0 300.5700 190.3146
  L 299.2938 190.2164
  A 1.20 1.20 0.0 0 0 298.0053 191.3208
  L 297.9056 192.6169
  A 1.20 1.20 0.0 0 0 299.0100 193.9054
  L 300.2862 194.0036
  A 1.20 1.20 0.0 0 0 301.5747 192.8992
  L 301.6744 191.6031
  Z
  M 303.5901 195.0222
  A 2.61 2.26 -64.1 0 0 300.4170 196.3828
  A 2.61 2.26 -64.1 0 0 301.3099 199.7178
  A 2.61 2.26 -64.1 0 0 304.4830 198.3572
  A 2.61 2.26 -64.1 0 0 303.5901 195.0222
  Z
  M 303.1906 202.6945
  A 1.75 1.22 -74.4 0 0 301.5449 204.0519
  A 1.75 1.22 -74.4 0 0 302.2494 206.0655
  A 1.75 1.22 -74.4 0 0 303.8951 204.7081
  A 1.75 1.22 -74.4 0 0 303.1906 202.6945
  Z
  M 298.7410 206.5716
  A 2.11 1.27 -87.8 0 0 297.3909 208.6312
  A 2.11 1.27 -87.8 0 0 298.5790 210.7884
  A 2.11 1.27 -87.8 0 0 299.9291 208.7288
  A 2.11 1.27 -87.8 0 0 298.7410 206.5716
  Z"
/>
<path fill="#225e31" d="
  M 253.72 104.93
  Q 255.37 106.48 257.43 107.57
  Q 258.93 108.36 260.10 112.18
  Q 260.28 118.33 256.84 122.60
  Q 255.51 116.59 251.25 112.46
  A 0.66 0.66 0.0 0 0 250.43 112.39
  L 250.42 112.40
  A 0.44 0.44 0.0 0 0 250.30 113.02
  Q 252.83 116.51 254.03 120.77
  C 255.69 126.69 251.65 133.27 246.87 136.24
  Q 253.38 129.79 252.36 122.52
  Q 251.26 114.62 243.86 110.46
  C 234.82 105.38 221.35 112.05 220.16 122.60
  C 219.32 130.11 223.30 135.18 230.27 137.64
  Q 238.50 140.54 246.87 136.24
  L 244.20 138.23
  Q 243.58 138.13 243.17 138.31
  L 237.57 139.85
  A 2.78 2.52 36.5 0 1 236.68 139.94
  C 225.28 139.28 215.29 132.54 216.50 119.74
  Q 216.93 121.04 217.12 120.52
  Q 221.76 107.53 234.99 103.57
  Q 240.43 101.94 245.26 102.75
  Q 248.22 103.25 253.72 104.93
  Z"
/>
<ellipse fill="#9dcb30" cx="0.00" cy="0.00" transform="translate(208.45,104.60) rotate(-177.1)" rx="1.57" ry="1.35"/>
<path fill="#46943a" d="
  M 295.05 167.54
  L 295.11 172.58
  A 1.37 1.34 64.0 0 1 294.82 173.45
  C 282.65 188.64 267.99 200.80 253.79 213.95
  Q 252.13 215.74 253.76 217.20
  L 253.78 218.79
  L 253.01 219.44
  Q 251.80 221.10 250.03 222.02
  Q 248.70 221.68 247.68 222.70
  Q 246.83 223.56 247.52 224.49
  L 248.10 226.74
  Q 248.04 226.89 247.97 227.04
  L 247.67 228.88
  A 0.59 0.58 5.1 0 1 247.08 229.37
  Q 246.29 229.36 245.47 229.06
  C 243.32 228.73 241.80 230.36 242.27 232.49
  L 242.12 233.54
  A 0.34 0.34 0.0 0 1 241.66 233.81
  Q 241.38 233.71 241.11 233.36
  A 1.35 0.77 55.3 0 0 239.82 232.74
  Q 238.31 233.51 238.84 233.64
  L 238.52 234.06
  Q 238.34 235.74 239.04 237.35
  A 0.67 0.67 0.0 0 1 238.42 238.29
  Q 237.45 238.28 236.27 237.15
  Q 235.61 237.09 235.02 236.77
  A 0.47 0.47 0.0 0 1 234.87 236.07
  C 237.61 232.44 240.88 229.05 243.20 225.23
  Q 246.05 220.53 248.11 216.68
  A 0.45 0.45 0.0 0 0 247.43 216.11
  L 240.73 221.31
  Q 243.41 215.94 246.85 211.12
  Q 247.81 209.76 249.93 204.69
  L 252.33 205.64
  A 0.51 0.50 -63.7 0 0 252.94 205.43
  Q 255.50 201.06 256.50 196.21
  C 257.57 191.02 259.26 186.75 261.16 182.16
  A 6.86 6.74 79.6 0 1 262.71 179.87
  Q 268.34 174.41 274.29 163.06
  Q 278.46 155.11 277.63 148.36
  Q 279.62 141.23 274.50 137.00
  Q 270.94 134.06 265.49 134.47
  A 3.37 3.14 29.6 0 0 264.48 134.71
  L 248.88 140.93
  L 243.95 138.57
  L 244.20 138.23
  Q 250.43 136.17 254.53 130.04
  Q 257.21 126.04 256.84 122.60
  Q 260.28 118.33 260.10 112.18
  Q 260.56 109.18 258.26 105.09
  L 258.45 103.56
  A 0.49 0.49 0.0 0 1 259.20 103.21
  Q 270.56 110.59 278.09 121.44
  Q 292.53 142.23 295.05 167.54
  Z"
/>
<path fill="#9dcb30" d="
  M 205.38 109.68
  Q 206.26 109.54 207.43 110.34
  A 0.81 0.80 27.2 0 1 207.73 111.26
  Q 207.06 113.22 205.01 113.81
  A 1.48 1.41 -87.6 0 1 203.32 111.88
  Q 203.53 111.28 203.62 110.75
  A 0.90 0.89 24.2 0 0 203.31 109.94
  Q 201.06 108.07 202.53 105.89
  A 2.05 1.80 -45.5 0 1 205.76 105.65
  Q 206.80 107.30 205.13 109.23
  A 0.27 0.27 0.0 0 0 205.38 109.68
  Z"
/>
<path fill="#8abf32" d="
  M 382.22 274.51
  A 0.42 0.42 0.0 0 1 381.56 274.50
  Q 378.64 270.65 375.25 267.59
  Q 371.72 264.41 371.08 262.61
  C 369.43 258.02 370.29 253.04 371.05 247.92
  Q 371.69 243.69 371.77 239.57
  C 372.71 189.42 347.80 142.29 297.88 126.75
  A 8.64 8.62 78.8 0 1 293.82 124.03
  C 289.60 118.93 286.62 113.71 281.15 109.60
  Q 280.37 109.00 280.30 108.54
  A 1.58 1.52 -0.4 0 1 282.06 106.82
  Q 291.43 107.98 300.64 110.38
  C 338.22 120.18 367.17 148.47 379.55 184.72
  C 389.20 212.97 390.62 243.91 382.95 272.94
  Q 382.70 273.91 382.22 274.51
  Z"
/>
<path fill="#f38713" d="
  M 246.87 136.24
  Q 238.50 140.54 230.27 137.64
  C 223.30 135.18 219.32 130.11 220.16 122.60
  C 221.35 112.05 234.82 105.38 243.86 110.46
  Q 251.26 114.62 252.36 122.52
  Q 253.38 129.79 246.87 136.24
  Z
  M 233.23 114.66
  Q 230.08 115.05 227.32 117.46
  Q 223.33 120.94 224.52 126.61
  A 0.27 0.27 0.0 0 0 225.06 126.55
  Q 225.03 118.06 233.35 115.17
  A 0.26 0.26 0.0 0 0 233.23 114.66
  Z
  M 237.42 116.33
  Q 230.01 117.84 229.55 124.80
  Q 227.30 125.37 226.48 126.68
  A 1.16 1.15 27.5 0 0 227.01 128.35
  Q 228.65 129.04 230.25 128.76
  Q 232.79 133.06 236.58 132.65
  Q 245.49 131.70 242.48 122.29
  L 244.82 119.83
  A 0.68 0.68 0.0 0 1 245.81 119.84
  L 246.58 120.70
  A 0.33 0.33 0.0 0 0 247.14 120.41
  Q 246.97 119.55 246.03 118.95
  C 244.73 118.13 244.32 116.73 243.37 115.62
  A 2.27 2.23 -7.6 0 0 242.57 115.02
  Q 239.29 113.54 237.42 116.33
  Z"
/>
<ellipse fill="#9dcb30" cx="0.00" cy="0.00" transform="translate(199.74,110.95) rotate(-106.6)" rx="1.65" ry="1.28"/>
<ellipse fill="#9dcb30" cx="0.00" cy="0.00" transform="translate(200.12,115.63) rotate(-23.1)" rx="2.23" ry="2.03"/>
<ellipse fill="#9dcb30" cx="0.00" cy="0.00" transform="translate(204.26,117.67) rotate(-127.7)" rx="1.68" ry="1.50"/>
<path fill="#225e31" d="
  M 237.42 116.33
  C 236.13 120.23 238.29 122.96 242.48 122.29
  Q 245.49 131.70 236.58 132.65
  Q 232.79 133.06 230.25 128.76
  L 229.55 124.80
  Q 230.01 117.84 237.42 116.33
  Z"
/>
<path fill="#9dcb30" d="
  M 200.08 126.00
  A 0.68 0.68 0.0 0 1 199.39 126.68
  L 197.96 126.67
  A 2.01 1.41 0.3 0 1 195.96 125.25
  L 195.96 124.93
  A 2.01 1.41 0.3 0 1 197.98 123.53
  L 199.41 123.54
  A 0.68 0.68 0.0 0 1 200.08 124.22
  L 200.08 126.00
  Z"
/>
<ellipse fill="#9dcb30" cx="0.00" cy="0.00" transform="translate(196.86,129.46) rotate(-177.6)" rx="1.17" ry="0.98"/>
<path fill="#225e31" d="
  M 173.88 142.58
  Q 170.41 146.20 168.84 144.25
  Q 169.34 141.55 171.76 141.33
  Q 173.37 141.18 173.88 142.58
  Z"
/>
<path fill="#6bb038" d="
  M 168.84 144.25
  Q 170.41 146.20 173.88 142.58
  C 176.51 145.05 174.27 146.81 172.52 148.73
  A 1.36 1.35 23.6 0 1 171.40 149.16
  Q 169.60 149.01 168.43 148.36
  A 0.89 0.89 0.0 0 1 167.98 147.48
  Q 168.20 145.59 168.84 144.25
  Z"
/>
<path fill="#2c7635" d="
  M 277.63 148.36
  Q 278.46 155.11 274.29 163.06
  Q 268.34 174.41 262.71 179.87
  A 6.86 6.74 79.6 0 0 261.16 182.16
  C 259.26 186.75 257.57 191.02 256.50 196.21
  Q 255.50 201.06 252.94 205.43
  A 0.51 0.50 -63.7 0 1 252.33 205.64
  L 249.93 204.69
  Q 252.59 197.41 252.64 193.35
  Q 252.72 186.96 252.85 183.74
  A 1.19 1.19 0.0 0 1 253.39 182.78
  C 256.23 180.88 253.33 176.61 256.50 174.48
  C 263.40 169.85 265.99 168.44 270.03 162.89
  A 0.81 0.75 69.5 0 0 270.17 162.55
  Q 270.29 161.63 269.40 161.18
  Q 275.09 156.16 277.63 148.36
  Z"
/>
<path fill="#225e31" d="
  M 141.01 334.09
  A 0.51 0.51 0.0 0 1 141.48 334.67
  L 141.45 334.92
  A 0.15 0.15 0.0 0 1 141.30 335.05
  Q 137.59 334.96 136.10 338.10
  A 2.15 2.15 0.0 0 0 136.46 340.46
  L 138.23 342.41
  A 1.44 1.43 72.5 0 0 139.09 342.86
  L 145.05 343.68
  A 0.56 0.56 0.0 0 1 145.43 344.57
  Q 143.25 347.60 140.14 346.69
  A 1.90 1.88 -12.7 0 1 139.26 346.14
  C 121.48 326.95 110.45 303.27 106.35 277.33
  Q 104.73 267.09 104.62 258.98
  C 104.06 217.80 120.31 178.01 150.44 149.64
  A 0.60 0.60 0.0 0 1 151.44 150.19
  C 150.30 156.09 153.20 160.87 156.64 165.57
  A 2.74 2.73 47.5 0 1 156.50 168.97
  Q 132.63 196.35 128.17 233.19
  Q 127.36 239.90 127.63 251.73
  Q 127.87 262.08 129.49 270.16
  Q 132.05 282.95 136.25 293.29
  Q 138.36 298.48 138.65 299.57
  A 0.82 0.80 -21.0 0 1 138.23 300.49
  Q 132.19 303.56 134.41 311.92
  A 1.40 1.39 -19.3 0 1 133.61 313.57
  C 128.34 315.83 123.66 320.73 127.66 326.64
  Q 132.32 333.52 141.01 334.09
  Z"
/>
<path fill="#225e31" d="
  M 244.74 149.48
  Q 237.95 153.34 232.93 154.93
  Q 229.18 156.13 220.70 157.90
  Q 213.98 159.31 208.22 159.37
  Q 200.41 159.45 191.67 159.17
  C 186.87 159.02 182.44 157.44 178.05 156.94
  A 5.15 5.03 57.8 0 1 176.88 156.66
  Q 172.13 154.93 166.76 154.26
  Q 165.66 154.13 162.27 155.61
  Q 160.91 151.90 167.98 152.30
  Q 169.24 152.38 173.76 154.06
  Q 177.06 155.28 178.89 155.48
  C 181.22 155.73 183.36 156.66 185.88 156.94
  Q 202.88 158.88 217.22 156.87
  Q 230.30 155.04 244.74 149.48
  Z"
/>
<ellipse fill="#9dcb30" cx="0.00" cy="0.00" transform="translate(297.36,152.84) rotate(-117.8)" rx="1.44" ry="0.94"/>
<ellipse fill="#9dcb30" cx="0.00" cy="0.00" transform="translate(297.70,157.34) rotate(-95.2)" rx="2.11" ry="1.64"/>
<path fill="#225e31" d="
  M 269.40 161.18
  Q 270.29 161.63 270.17 162.55
  A 0.81 0.75 69.5 0 1 270.03 162.89
  C 265.99 168.44 263.40 169.85 256.50 174.48
  C 253.33 176.61 256.23 180.88 253.39 182.78
  A 1.19 1.19 0.0 0 0 252.85 183.74
  Q 252.72 186.96 252.64 193.35
  Q 252.59 197.41 249.93 204.69
  Q 247.81 209.76 246.85 211.12
  Q 243.41 215.94 240.73 221.31
  Q 238.02 226.01 231.50 234.01
  Q 229.73 236.17 221.16 248.72
  C 214.27 258.82 209.77 268.20 206.25 278.97
  Q 205.46 281.39 205.25 284.00
  Q 203.14 281.86 202.06 279.64
  A 3.20 3.17 -45.2 0 1 202.06 276.85
  C 203.75 273.34 205.46 270.32 206.92 266.23
  Q 209.57 258.76 213.59 249.12
  Q 216.03 243.29 220.34 238.84
  Q 229.96 228.87 230.27 228.54
  Q 236.06 222.35 238.67 214.91
  Q 241.32 212.65 242.24 210.03
  Q 243.98 205.09 244.71 198.26
  Q 244.65 197.19 244.42 197.10
  Q 243.58 196.74 242.55 196.92
  Q 244.48 197.07 244.43 196.02
  Q 244.21 191.85 242.46 188.30
  Q 240.80 184.94 237.34 182.26
  Q 233.16 179.04 227.84 177.29
  C 231.98 176.60 236.55 176.78 240.13 176.05
  Q 251.27 173.77 260.67 167.05
  L 269.40 161.18
  Z"
/>
<ellipse fill="#9dcb30" cx="0.00" cy="0.00" transform="translate(300.75,162.92) rotate(-95.2)" rx="1.69" ry="1.18"/>
<path fill="#46943a" d="
  M 175.53 164.96
  Q 175.02 165.16 174.23 165.06
  Q 172.60 164.55 171.51 163.46
  L 175.53 164.96
  Z"
/>
<path fill="#2c7635" d="
  M 175.53 164.96
  Q 183.36 167.64 185.69 168.31
  Q 190.63 169.73 200.51 171.45
  C 212.07 173.47 225.09 173.53 236.00 172.70
  Q 247.90 171.78 260.67 167.05
  Q 251.27 173.77 240.13 176.05
  C 236.55 176.78 231.98 176.60 227.84 177.29
  Q 220.13 176.81 212.13 176.40
  Q 206.83 176.13 194.00 172.72
  Q 183.67 169.98 174.23 165.06
  Q 175.02 165.16 175.53 164.96
  Z"
/>
<ellipse fill="#9dcb30" cx="0.00" cy="0.00" transform="translate(301.83,169.57) rotate(-104.8)" rx="2.76" ry="1.88"/>
<path fill="#6bb038" d="
  M 307.22 207.40
  Q 307.61 209.62 307.29 210.23
  Q 306.69 211.90 305.27 217.28
  Q 302.54 227.62 296.29 237.45
  Q 289.11 246.55 281.38 255.05
  C 275.00 262.06 269.12 268.67 264.72 275.46
  Q 258.58 284.94 257.40 288.17
  Q 255.53 293.23 253.66 298.22
  L 250.32 294.18
  A 1.01 1.00 -28.7 0 0 249.25 293.87
  Q 245.81 294.98 246.36 298.55
  A 1.03 1.03 0.0 0 0 246.87 299.30
  L 252.71 302.62
  C 251.77 306.09 250.05 308.98 246.86 310.79
  C 242.36 313.33 239.88 318.10 238.01 322.99
  A 1.70 1.66 -6.1 0 1 237.33 323.81
  L 214.18 338.56
  L 212.05 324.62
  A 2.31 2.29 -81.8 0 0 210.78 322.91
  L 200.60 318.07
  Q 200.69 315.91 199.71 313.55
  Q 196.22 305.20 193.79 298.72
  Q 191.18 291.80 189.03 288.44
  Q 185.96 283.64 181.93 279.58
  Q 185.18 275.72 189.25 273.15
  A 1.33 1.31 -42.1 0 1 190.77 273.22
  C 197.20 278.25 198.52 285.87 201.82 295.65
  Q 203.55 300.80 205.34 303.62
  C 207.26 306.65 210.18 307.82 213.54 309.52
  A 0.42 0.42 0.0 0 0 214.15 309.20
  L 214.57 306.08
  A 1.34 1.33 29.7 0 0 214.29 305.06
  L 212.06 302.28
  L 209.08 290.66
  Q 212.96 273.06 218.62 262.37
  Q 225.37 249.60 228.28 244.77
  Q 228.96 243.63 232.44 239.41
  A 1.00 0.99 30.4 0 1 233.58 239.12
  L 235.07 239.72
  A 0.79 0.78 -48.7 0 0 235.77 239.67
  Q 236.98 238.94 236.27 237.15
  Q 237.45 238.28 238.42 238.29
  A 0.67 0.67 0.0 0 0 239.04 237.35
  Q 238.34 235.74 238.52 234.06
  Q 238.45 234.90 238.99 235.22
  A 1.44 1.44 0.0 0 0 241.17 233.88
  Q 241.11 233.12 240.02 233.21
  Q 239.36 233.26 238.84 233.64
  Q 238.31 233.51 239.82 232.74
  A 1.35 0.77 55.3 0 1 241.11 233.36
  Q 241.38 233.71 241.66 233.81
  A 0.34 0.34 0.0 0 0 242.12 233.54
  L 242.27 232.49
  C 245.26 235.98 249.32 230.57 245.47 229.06
  Q 246.29 229.36 247.08 229.37
  A 0.59 0.58 5.1 0 0 247.67 228.88
  L 247.97 227.04
  C 247.18 230.07 250.87 230.26 252.29 228.74
  A 1.83 1.81 -57.1 0 0 251.68 225.81
  Q 249.73 225.01 248.10 226.74
  L 247.52 224.49
  Q 248.87 224.87 249.96 223.73
  Q 250.88 222.78 250.03 222.02
  Q 251.80 221.10 253.01 219.44
  Q 252.77 220.82 253.75 221.24
  Q 254.89 221.74 255.48 220.76
  A 1.33 1.33 0.0 0 0 254.76 218.80
  Q 254.43 218.69 253.78 218.79
  L 253.76 217.20
  Q 256.79 217.71 257.41 214.96
  A 1.62 1.62 0.0 0 0 255.44 213.03
  Q 254.42 213.28 253.79 213.95
  C 267.99 200.80 282.65 188.64 294.82 173.45
  A 1.37 1.34 64.0 0 0 295.11 172.58
  L 295.05 167.54
  Q 295.45 170.43 295.88 173.32
  Q 296.17 175.24 297.10 179.02
  Q 298.70 185.47 296.60 192.50
  C 294.28 200.25 292.07 204.50 295.28 212.26
  A 1.14 1.14 0.0 0 0 295.89 212.87
  L 298.39 213.88
  A 1.52 1.45 -41.1 0 0 299.34 213.92
  Q 304.47 212.35 307.22 207.40
  Z
  M 243.6725 238.3887
  A 1.10 1.10 0.0 0 0 242.7148 237.1629
  L 242.0001 237.0751
  A 1.10 1.10 0.0 0 0 240.7743 238.0329
  L 240.7475 238.2513
  A 1.10 1.10 0.0 0 0 241.7052 239.4771
  L 242.4199 239.5649
  A 1.10 1.10 0.0 0 0 243.6457 238.6071
  L 243.6725 238.3887
  Z
  M 240.7885 241.7784
  A 1.77 1.37 -18.5 0 0 238.6753 241.0408
  A 1.77 1.37 -18.5 0 0 237.4315 242.9016
  A 1.77 1.37 -18.5 0 0 239.5447 243.6392
  A 1.77 1.37 -18.5 0 0 240.7885 241.7784
  Z
  M 268.4755 241.0326
  A 1.93 1.04 -58.6 0 0 266.5823 242.1381
  A 1.93 1.04 -58.6 0 0 266.4645 244.3274
  A 1.93 1.04 -58.6 0 0 268.3577 243.2219
  A 1.93 1.04 -58.6 0 0 268.4755 241.0326
  Z
  M 235.3591 242.2072
  A 2.73 2.26 -33.4 0 0 231.8359 241.8232
  A 2.73 2.26 -33.4 0 0 230.8009 245.2128
  A 2.73 2.26 -33.4 0 0 234.3241 245.5968
  A 2.73 2.26 -33.4 0 0 235.3591 242.2072
  Z
  M 240.6914 246.1697
  A 1.33 1.03 -177.4 0 0 241.9733 247.2589
  A 1.33 1.03 -177.4 0 0 243.3486 246.2903
  A 1.33 1.03 -177.4 0 0 242.0667 245.2011
  A 1.33 1.03 -177.4 0 0 240.6914 246.1697
  Z
  M 235.6985 248.3954
  A 1.86 1.21 -2.3 0 0 233.7914 247.2610
  A 1.86 1.21 -2.3 0 0 231.9815 248.5446
  A 1.86 1.21 -2.3 0 0 233.8886 249.6790
  A 1.86 1.21 -2.3 0 0 235.6985 248.3954
  Z
  M 229.36 252.71
  A 1.87 1.87 0.0 0 0 227.49 250.84
  A 1.87 1.87 0.0 0 0 225.62 252.71
  A 1.87 1.87 0.0 0 0 227.49 254.58
  A 1.87 1.87 0.0 0 0 229.36 252.71
  Z
  M 239.1176 251.7471
  A 2.51 2.02 -24.3 0 0 235.9987 250.9390
  A 2.51 2.02 -24.3 0 0 234.5424 253.8129
  A 2.51 2.02 -24.3 0 0 237.6613 254.6210
  A 2.51 2.02 -24.3 0 0 239.1176 251.7471
  Z
  M 224.3160 256.7245
  A 2.18 1.77 -68.3 0 0 221.8654 258.0955
  A 2.18 1.77 -68.3 0 0 222.7040 260.7755
  A 2.18 1.77 -68.3 0 0 225.1546 259.4045
  A 2.18 1.77 -68.3 0 0 224.3160 256.7245
  Z
  M 256.7743 257.0570
  A 1.36 1.06 -74.9 0 0 255.3966 258.0939
  A 1.36 1.06 -74.9 0 0 256.0657 259.6830
  A 1.36 1.06 -74.9 0 0 257.4434 258.6461
  A 1.36 1.06 -74.9 0 0 256.7743 257.0570
  Z
  M 229.0932 259.4938
  A 2.08 1.59 -47.2 0 0 226.5134 259.9397
  A 2.08 1.59 -47.2 0 0 226.2668 262.5462
  A 2.08 1.59 -47.2 0 0 228.8466 262.1003
  A 2.08 1.59 -47.2 0 0 229.0932 259.4938
  Z
  M 260.8862 265.4207
  A 2.48 1.80 -57.4 0 0 258.0336 266.5402
  A 2.48 1.80 -57.4 0 0 258.2138 269.5993
  A 2.48 1.80 -57.4 0 0 261.0664 268.4798
  A 2.48 1.80 -57.4 0 0 260.8862 265.4207
  Z
  M 223.1279 266.7956
  A 3.06 2.75 -34.3 0 0 219.0503 266.2482
  A 3.06 2.75 -34.3 0 0 218.0721 270.2444
  A 3.06 2.75 -34.3 0 0 222.1497 270.7918
  A 3.06 2.75 -34.3 0 0 223.1279 266.7956
  Z
  M 219.1567 272.9028
  A 2.20 1.84 -60.1 0 0 216.4649 273.8928
  A 2.20 1.84 -60.1 0 0 216.9633 276.7172
  A 2.20 1.84 -60.1 0 0 219.6551 275.7272
  A 2.20 1.84 -60.1 0 0 219.1567 272.9028
  Z
  M 218.9439 280.6952
  A 2.58 2.03 -44.7 0 0 215.6821 281.0671
  A 2.58 2.03 -44.7 0 0 215.2761 284.3248
  A 2.58 2.03 -44.7 0 0 218.5379 283.9529
  A 2.58 2.03 -44.7 0 0 218.9439 280.6952
  Z
  M 223.0996 281.5219
  A 1.22 0.80 -61.1 0 0 221.8096 282.2034
  A 1.22 0.80 -61.1 0 0 221.9204 283.6581
  A 1.22 0.80 -61.1 0 0 223.2104 282.9766
  A 1.22 0.80 -61.1 0 0 223.0996 281.5219
  Z
  M 216.1523 288.4579
  A 1.30 1.08 -62.4 0 0 214.5929 289.1096
  A 1.30 1.08 -62.4 0 0 214.9477 290.7621
  A 1.30 1.08 -62.4 0 0 216.5071 290.1104
  A 1.30 1.08 -62.4 0 0 216.1523 288.4579
  Z
  M 239.63 294.43
  L 242.39 295.62
  A 1.08 1.08 0.0 0 0 243.81 295.06
  L 243.87 294.91
  A 5.20 2.44 -66.6 0 0 243.70 289.17
  L 243.44 289.06
  A 5.20 2.44 -66.6 0 0 239.14 292.86
  L 239.07 293.01
  A 1.08 1.08 0.0 0 0 239.63 294.43
  Z
  M 234.15 308.03
  A 0.42 0.42 0.0 0 0 234.95 307.93
  L 235.49 303.92
  A 1.26 1.25 -6.9 0 1 236.28 302.92
  Q 237.58 302.40 238.10 302.10
  Q 238.87 301.65 238.47 301.08
  A 1.28 1.21 -62.9 0 0 236.25 301.87
  Q 236.19 303.30 234.29 303.19
  A 1.39 1.38 80.5 0 0 232.93 305.10
  L 234.15 308.03
  Z
  M 248.1046 302.2056
  A 2.60 2.18 -27.1 0 0 244.7969 301.4493
  A 2.60 2.18 -27.1 0 0 243.4754 304.5744
  A 2.60 2.18 -27.1 0 0 246.7831 305.3307
  A 2.60 2.18 -27.1 0 0 248.1046 302.2056
  Z"
/>
<ellipse fill="#9dcb30" cx="0.00" cy="0.00" transform="translate(299.11,175.24) rotate(-91.9)" rx="1.69" ry="1.19"/>
<ellipse fill="#9dcb30" cx="0.00" cy="0.00" transform="translate(302.48,180.69) rotate(-81.4)" rx="1.85" ry="1.38"/>
<ellipse fill="#9dcb30" cx="0.00" cy="0.00" transform="translate(303.22,186.99) rotate(-78.5)" rx="2.48" ry="1.78"/>
<path fill="#46943a" d="
  M 307.23 187.27
  Q 306.77 187.10 307.00 186.21
  L 307.23 187.27
  Z"
/>
<rect fill="#9dcb30" x="-1.84" y="-1.85" transform="translate(299.79,192.11) rotate(4.4)" width="3.68" height="3.70" rx="1.20"/>
<path fill="#225e31" d="
  M 178.98 215.74
  C 179.78 221.73 183.61 222.60 187.11 225.91
  Q 191.73 230.27 197.34 234.16
  C 202.19 237.52 209.48 236.35 214.18 233.45
  C 218.35 230.88 221.00 223.54 225.21 222.15
  Q 231.11 220.22 236.52 216.35
  Q 233.62 222.23 228.70 225.45
  Q 220.89 230.57 219.11 231.86
  Q 212.36 236.74 209.26 237.51
  Q 201.29 239.49 194.32 235.04
  Q 191.65 233.33 180.58 224.17
  Q 179.41 223.20 176.88 223.04
  A 0.97 0.97 0.0 0 0 175.87 223.85
  Q 174.70 231.46 179.80 236.23
  A 2.60 2.54 -80.2 0 1 180.40 237.10
  Q 182.27 241.67 178.35 244.38
  C 176.47 245.67 173.39 245.64 171.77 243.95
  C 170.05 242.18 169.54 240.11 170.17 237.41
  Q 171.18 233.08 171.54 227.63
  A 1.79 1.16 -86.5 0 0 170.49 225.76
  C 168.33 225.64 167.13 227.65 166.33 229.64
  C 165.07 232.73 164.27 236.56 162.32 238.82
  C 157.75 244.09 152.94 240.06 155.65 234.24
  A 3.02 2.88 -12.1 0 1 156.18 233.46
  Q 159.20 230.28 162.03 227.32
  Q 163.61 225.67 164.15 223.68
  A 1.64 1.63 -79.2 0 0 162.77 221.64
  Q 159.02 221.19 155.21 222.77
  C 152.30 223.98 147.72 225.13 145.89 221.50
  A 1.25 1.24 43.6 0 1 145.86 220.47
  Q 147.92 215.74 152.26 215.81
  Q 156.31 215.87 162.37 216.16
  A 0.62 0.62 0.0 0 0 162.88 215.15
  C 161.00 212.81 156.71 211.03 152.48 209.29
  Q 149.75 208.17 148.27 205.83
  C 146.10 202.40 147.97 198.78 152.17 199.62
  Q 154.81 200.15 156.44 201.89
  C 160.34 206.05 163.77 210.21 167.75 211.71
  A 1.04 1.03 -78.4 0 0 169.15 210.78
  C 169.22 208.78 168.80 206.93 167.55 205.17
  C 164.76 201.20 163.01 199.50 162.86 195.94
  A 1.91 1.90 -33.0 0 1 163.06 195.01
  C 164.21 192.81 166.27 191.60 168.56 193.21
  C 174.10 197.11 171.54 204.07 173.04 209.65
  A 1.20 1.20 0.0 0 0 175.00 210.23
  C 177.29 208.15 178.06 204.44 178.48 201.42
  Q 178.85 198.81 180.22 197.35
  C 182.24 195.19 185.55 193.72 188.04 196.16
  Q 192.37 200.40 188.36 205.45
  A 2.03 1.99 -81.6 0 1 187.54 206.07
  L 182.18 208.30
  A 6.95 6.54 -71.7 0 0 180.87 209.01
  Q 178.65 210.53 176.85 213.83
  A 1.23 1.22 16.6 0 0 177.83 215.64
  L 178.98 215.74
  Z"
/>
<ellipse fill="#9dcb30" cx="0.00" cy="0.00" transform="translate(302.45,197.37) rotate(-64.1)" rx="2.61" ry="2.26"/>
<path fill="#8abf32" d="
  M 242.55 196.92
  Q 243.58 196.74 244.42 197.10
  Q 244.65 197.19 244.71 198.26
  Q 240.19 199.86 235.02 199.59
  L 242.55 196.92
  Z"
/>
<path fill="#46943a" d="
  M 244.71 198.26
  Q 243.98 205.09 242.24 210.03
  Q 241.32 212.65 238.67 214.91
  Q 239.20 213.15 239.10 211.95
  A 0.16 0.16 0.0 0 0 238.79 211.89
  L 236.52 216.35
  Q 231.11 220.22 225.21 222.15
  C 221.00 223.54 218.35 230.88 214.18 233.45
  C 209.48 236.35 202.19 237.52 197.34 234.16
  Q 191.73 230.27 187.11 225.91
  C 183.61 222.60 179.78 221.73 178.98 215.74
  C 187.76 215.61 194.77 217.30 202.75 218.80
  Q 204.59 219.14 209.05 217.51
  Q 212.48 216.26 218.35 211.84
  Q 220.74 210.04 227.57 204.07
  Q 230.64 201.39 235.02 199.59
  Q 240.19 199.86 244.71 198.26
  Z"
/>
<ellipse fill="#9dcb30" cx="0.00" cy="0.00" transform="translate(302.72,204.38) rotate(-74.4)" rx="1.75" ry="1.22"/>
<ellipse fill="#9dcb30" cx="0.00" cy="0.00" transform="translate(298.66,208.68) rotate(-87.8)" rx="2.11" ry="1.27"/>
<path fill="#225e31" d="
  M 307.29 210.23
  Q 308.11 215.48 307.23 218.25
  Q 304.37 227.25 299.84 235.17
  A 0.39 0.39 0.0 0 0 300.48 235.61
  L 304.51 230.67
  Q 303.78 236.40 302.62 241.96
  Q 301.85 245.66 302.35 248.47
  C 303.47 254.72 310.12 257.56 315.60 257.77
  Q 323.62 258.07 330.04 259.15
  A 1.65 1.65 0.0 0 0 331.96 257.55
  Q 331.99 255.03 333.06 255.05
  C 333.92 252.43 331.06 248.72 329.40 246.75
  C 326.15 242.88 323.05 239.47 327.81 235.88
  A 2.63 2.56 -70.0 0 1 328.76 235.42
  C 333.22 234.30 334.97 238.06 334.83 241.97
  C 334.70 245.55 334.77 249.44 336.24 252.53
  A 0.72 0.72 0.0 0 0 337.56 252.48
  L 340.79 244.47
  A 2.20 2.19 87.8 0 1 341.83 243.34
  Q 343.43 242.53 345.84 243.11
  A 1.00 1.00 0.0 0 1 346.57 243.79
  Q 347.36 246.34 346.51 248.57
  A 2.25 2.22 79.9 0 1 345.87 249.50
  C 343.85 251.27 340.85 253.13 339.73 255.63
  A 0.91 0.91 0.0 0 0 340.78 256.89
  Q 345.38 255.79 350.00 252.88
  Q 353.60 250.60 357.16 252.33
  C 359.16 253.30 359.37 254.54 358.04 256.08
  A 1.78 1.72 7.9 0 1 357.41 256.54
  Q 351.03 259.32 343.18 260.88
  A 0.79 0.78 -12.5 0 0 342.56 261.84
  Q 342.64 262.13 342.96 262.28
  Q 343.51 262.54 346.80 263.54
  C 351.49 264.96 359.13 264.00 360.47 269.54
  C 361.57 274.07 356.86 273.65 354.31 272.16
  Q 348.26 268.60 341.65 265.79
  A 0.59 0.59 0.0 0 0 340.83 266.32
  Q 340.80 267.21 341.54 267.98
  C 344.84 271.46 351.04 278.04 350.66 281.54
  A 1.95 1.84 5.3 0 1 348.58 283.17
  Q 347.25 283.07 345.59 281.87
  A 1.88 1.83 -87.1 0 1 345.06 281.27
  L 343.54 278.50
  A 4.81 4.77 -67.4 0 1 343.12 277.47
  C 342.00 273.57 339.97 269.92 336.63 267.64
  Q 336.14 267.31 335.68 267.85
  Q 335.37 268.20 335.53 268.77
  Q 336.39 271.98 338.35 275.79
  A 3.81 3.74 -40.0 0 1 337.96 279.81
  C 336.92 281.16 334.06 280.63 333.16 278.84
  C 331.85 276.23 331.13 274.39 331.99 271.90
  C 332.69 269.87 333.79 266.93 331.90 265.59
  A 0.96 0.95 -55.0 0 0 330.57 265.83
  Q 329.66 267.14 328.06 269.88
  C 326.96 271.77 327.15 273.40 326.07 275.32
  Q 324.08 278.87 320.50 278.20
  A 2.48 2.42 -22.4 0 1 319.53 277.81
  C 316.51 275.79 315.43 272.40 317.93 269.36
  A 1.66 1.63 -70.8 0 1 319.12 268.77
  C 322.92 268.64 326.46 266.95 328.34 263.40
  A 1.72 1.71 31.2 0 0 327.79 261.17
  C 325.64 259.69 319.75 260.29 314.52 260.29
  Q 311.42 260.28 306.37 258.03
  C 301.54 255.88 298.34 250.85 297.75 246.00
  Q 297.06 240.31 296.29 237.45
  Q 302.54 227.62 305.27 217.28
  Q 306.69 211.90 307.29 210.23
  Z"
/>
<path fill="#9dcb30" d="
  M 253.76 217.20
  Q 252.13 215.74 253.79 213.95
  Q 254.42 213.28 255.44 213.03
  A 1.62 1.62 0.0 0 1 257.41 214.96
  Q 256.79 217.71 253.76 217.20
  Z"
/>
<path fill="#9dcb30" d="
  M 236.27 237.15
  Q 236.98 238.94 235.77 239.67
  A 0.79 0.78 -48.7 0 1 235.07 239.72
  L 233.58 239.12
  A 1.00 0.99 30.4 0 0 232.44 239.41
  Q 228.96 243.63 228.28 244.77
  Q 225.37 249.60 218.62 262.37
  Q 212.96 273.06 209.08 290.66
  L 205.25 284.00
  Q 205.46 281.39 206.25 278.97
  C 209.77 268.20 214.27 258.82 221.16 248.72
  Q 229.73 236.17 231.50 234.01
  Q 238.02 226.01 240.73 221.31
  L 247.43 216.11
  A 0.45 0.45 0.0 0 1 248.11 216.68
  Q 246.05 220.53 243.20 225.23
  C 240.88 229.05 237.61 232.44 234.87 236.07
  A 0.47 0.47 0.0 0 0 235.02 236.77
  Q 235.61 237.09 236.27 237.15
  Z"
/>
<path fill="#9dcb30" d="
  M 253.01 219.44
  L 253.78 218.79
  Q 254.43 218.69 254.76 218.80
  A 1.33 1.33 0.0 0 1 255.48 220.76
  Q 254.89 221.74 253.75 221.24
  Q 252.77 220.82 253.01 219.44
  Z"
/>
<path fill="#8abf32" d="
  M 321.60 250.39
  Q 318.99 251.99 316.13 252.29
  A 1.35 1.34 57.8 0 1 315.31 252.10
  L 310.19 248.84
  A 0.78 0.73 9.3 0 1 309.88 248.44
  Q 308.38 244.03 308.62 242.33
  Q 309.84 233.49 307.12 224.75
  L 308.92 220.04
  A 0.45 0.44 54.8 0 1 309.78 220.19
  C 309.93 227.02 310.16 233.12 311.34 239.13
  C 312.43 244.71 316.89 247.96 321.60 250.39
  Z"
/>
<path fill="#9dcb30" d="
  M 250.03 222.02
  Q 250.88 222.78 249.96 223.73
  Q 248.87 224.87 247.52 224.49
  Q 246.83 223.56 247.68 222.70
  Q 248.70 221.68 250.03 222.02
  Z"
/>
<path fill="#46943a" d="
  M 307.12 224.75
  Q 309.84 233.49 308.62 242.33
  Q 308.38 244.03 309.88 248.44
  A 0.78 0.73 9.3 0 0 310.19 248.84
  L 315.31 252.10
  A 1.35 1.34 57.8 0 0 316.13 252.29
  Q 318.99 251.99 321.60 250.39
  L 333.06 255.05
  Q 331.99 255.03 331.96 257.55
  A 1.65 1.65 0.0 0 1 330.04 259.15
  Q 323.62 258.07 315.60 257.77
  C 310.12 257.56 303.47 254.72 302.35 248.47
  Q 301.85 245.66 302.62 241.96
  Q 303.78 236.40 304.51 230.67
  L 307.12 224.75
  Z"
/>
<path fill="#9dcb30" d="
  M 247.97 227.04
  Q 248.04 226.89 248.10 226.74
  Q 249.73 225.01 251.68 225.81
  A 1.83 1.81 -57.1 0 1 252.29 228.74
  C 250.87 230.26 247.18 230.07 247.97 227.04
  Z"
/>
<path fill="#9dcb30" d="
  M 245.47 229.06
  C 249.32 230.57 245.26 235.98 242.27 232.49
  C 241.80 230.36 243.32 228.73 245.47 229.06
  Z"
/>
<path fill="#9dcb30" d="
  M 238.52 234.06
  L 238.84 233.64
  Q 239.36 233.26 240.02 233.21
  Q 241.11 233.12 241.17 233.88
  A 1.44 1.44 0.0 0 1 238.99 235.22
  Q 238.45 234.90 238.52 234.06
  Z"
/>
<rect fill="#9dcb30" x="-1.46" y="-1.21" transform="translate(242.21,238.32) rotate(7.0)" width="2.92" height="2.42" rx="1.10"/>
<ellipse fill="#9dcb30" cx="0.00" cy="0.00" transform="translate(239.11,242.34) rotate(-18.5)" rx="1.77" ry="1.37"/>
<ellipse fill="#9dcb30" cx="0.00" cy="0.00" transform="translate(267.47,242.68) rotate(-58.6)" rx="1.93" ry="1.04"/>
<ellipse fill="#9dcb30" cx="0.00" cy="0.00" transform="translate(233.08,243.71) rotate(-33.4)" rx="2.73" ry="2.26"/>
<ellipse fill="#9dcb30" cx="0.00" cy="0.00" transform="translate(242.02,246.23) rotate(-177.4)" rx="1.33" ry="1.03"/>
<ellipse fill="#9dcb30" cx="0.00" cy="0.00" transform="translate(233.84,248.47) rotate(-2.3)" rx="1.86" ry="1.21"/>
<circle fill="#9dcb30" cx="227.49" cy="252.71" r="1.87"/>
<ellipse fill="#9dcb30" cx="0.00" cy="0.00" transform="translate(236.83,252.78) rotate(-24.3)" rx="2.51" ry="2.02"/>
<ellipse fill="#9dcb30" cx="0.00" cy="0.00" transform="translate(223.51,258.75) rotate(-68.3)" rx="2.18" ry="1.77"/>
<ellipse fill="#9dcb30" cx="0.00" cy="0.00" transform="translate(256.42,258.37) rotate(-74.9)" rx="1.36" ry="1.06"/>
<ellipse fill="#9dcb30" cx="0.00" cy="0.00" transform="translate(227.68,261.02) rotate(-47.2)" rx="2.08" ry="1.59"/>
<path fill="#8abf32" d="
  M 213.05 306.53
  Q 212.91 306.90 213.09 307.09
  A 0.12 0.11 24.9 0 0 213.29 307.02
  Q 213.31 306.70 213.05 306.53
  L 212.06 302.28
  L 214.29 305.06
  A 1.34 1.33 29.7 0 1 214.57 306.08
  L 214.15 309.20
  A 0.42 0.42 0.0 0 1 213.54 309.52
  C 210.18 307.82 207.26 306.65 205.34 303.62
  Q 203.55 300.80 201.82 295.65
  C 198.52 285.87 197.20 278.25 190.77 273.22
  A 1.33 1.31 -42.1 0 0 189.25 273.15
  Q 185.18 275.72 181.93 279.58
  C 175.14 274.01 168.17 275.91 166.65 284.95
  C 165.15 293.86 166.04 302.97 167.21 311.53
  Q 167.55 314.04 168.62 316.48
  A 0.66 0.66 0.0 0 1 167.69 317.32
  Q 165.36 316.01 165.26 313.51
  Q 159.08 296.96 161.06 279.07
  Q 161.35 278.53 161.14 277.93
  C 161.70 272.98 163.27 267.34 167.02 263.69
  A 3.00 2.90 -78.7 0 1 167.83 263.13
  Q 175.79 259.46 183.25 264.38
  Q 194.14 271.55 199.37 279.82
  Q 205.38 289.33 207.29 293.04
  Q 211.27 300.77 211.68 302.81
  Q 212.21 305.48 213.05 306.53
  Z"
/>
<ellipse fill="#9dcb30" cx="0.00" cy="0.00" transform="translate(259.55,267.51) rotate(-57.4)" rx="2.48" ry="1.80"/>
<ellipse fill="#9dcb30" cx="0.00" cy="0.00" transform="translate(220.60,268.52) rotate(-34.3)" rx="3.06" ry="2.75"/>
<path fill="#2c7635" d="
  M 389.19 321.96
  Q 388.95 322.52 389.08 323.29
  Q 389.03 323.42 388.97 323.54
  Q 388.80 324.22 388.89 325.01
  L 387.84 331.68
  Q 385.14 336.85 383.49 342.43
  Q 382.14 346.97 380.82 349.17
  C 376.00 357.14 370.53 364.63 364.37 372.10
  Q 361.23 375.91 353.64 382.29
  C 340.10 393.69 320.26 399.19 302.95 399.64
  Q 292.44 399.90 285.54 398.89
  C 270.37 396.65 254.67 391.91 241.30 383.28
  L 259.66 370.23
  Q 274.38 382.05 293.26 383.48
  Q 331.65 386.37 356.72 357.51
  Q 370.87 341.22 375.59 319.80
  Q 376.90 313.84 375.90 308.55
  Q 378.31 284.76 363.30 266.22
  A 0.20 0.20 0.0 0 1 363.51 265.91
  C 375.39 269.56 384.19 285.40 386.91 296.62
  C 388.85 304.60 390.29 312.40 389.19 321.96
  Z"
/>
<ellipse fill="#9dcb30" cx="0.00" cy="0.00" transform="translate(218.06,274.81) rotate(-60.1)" rx="2.20" ry="1.84"/>
<path fill="#225e31" d="
  M 181.93 279.58
  Q 185.96 283.64 189.03 288.44
  Q 191.18 291.80 193.79 298.72
  Q 196.22 305.20 199.71 313.55
  Q 200.69 315.91 200.60 318.07
  Q 200.73 325.32 202.46 331.30
  C 207.05 347.24 216.66 363.25 229.00 373.72
  Q 234.06 378.86 241.30 383.28
  C 254.67 391.91 270.37 396.65 285.54 398.89
  Q 292.44 399.90 302.95 399.64
  C 320.26 399.19 340.10 393.69 353.64 382.29
  Q 361.23 375.91 364.37 372.10
  C 370.53 364.63 376.00 357.14 380.82 349.17
  Q 382.14 346.97 383.49 342.43
  Q 385.14 336.85 387.84 331.68
  Q 382.08 360.34 362.06 381.30
  Q 344.81 399.35 320.74 405.22
  C 308.57 408.18 296.03 409.26 282.90 407.51
  Q 263.37 404.92 248.54 398.67
  Q 239.58 394.89 229.98 387.77
  Q 206.89 370.65 197.80 343.90
  Q 196.70 340.65 196.19 337.84
  C 195.61 334.63 194.82 332.63 194.53 329.66
  Q 193.61 320.31 193.56 312.01
  A 5.40 5.37 -66.5 0 0 192.15 308.40
  L 184.83 300.34
  A 2.66 2.65 -44.7 0 0 180.92 300.32
  L 179.52 301.82
  A 2.33 2.32 75.2 0 0 179.12 302.51
  Q 175.23 312.85 178.62 323.35
  Q 179.14 324.95 179.13 328.44
  Q 179.11 331.66 175.74 331.53
  Q 171.72 331.36 167.24 330.91
  C 163.34 330.51 159.30 334.48 156.56 337.43
  C 153.90 340.29 150.60 341.39 146.97 342.04
  A 0.68 0.64 53.7 0 1 146.53 341.96
  L 144.42 340.74
  A 1.40 1.40 0.0 0 1 144.20 338.47
  Q 145.74 337.13 149.78 334.55
  Q 151.44 333.48 151.75 331.79
  A 1.35 1.35 0.0 0 0 150.95 330.31
  Q 148.53 329.29 145.31 329.65
  C 140.52 330.20 136.18 330.15 133.02 326.55
  C 130.56 323.76 130.76 320.09 134.87 319.11
  C 137.27 318.55 139.11 318.98 141.37 320.50
  C 144.09 322.31 156.14 328.88 158.68 325.81
  A 1.30 1.22 37.3 0 0 158.37 323.99
  Q 152.76 319.98 145.62 317.15
  Q 141.05 315.35 141.16 310.93
  C 141.28 306.56 146.58 305.82 148.73 309.31
  Q 150.61 312.37 152.47 314.54
  Q 156.16 318.84 160.71 318.47
  Q 164.20 318.19 165.26 313.51
  Q 165.36 316.01 167.69 317.32
  A 0.66 0.66 0.0 0 0 168.62 316.48
  Q 167.55 314.04 167.21 311.53
  C 166.04 302.97 165.15 293.86 166.65 284.95
  C 168.17 275.91 175.14 274.01 181.93 279.58
  Z"
/>
<path fill="#46943a" d="
  M 161.14 277.93
  Q 161.35 278.53 161.06 279.07
  L 161.14 277.93
  Z"
/>
<ellipse fill="#9dcb30" cx="0.00" cy="0.00" transform="translate(217.11,282.51) rotate(-44.7)" rx="2.58" ry="2.03"/>
<ellipse fill="#9dcb30" cx="0.00" cy="0.00" transform="translate(222.51,282.59) rotate(-61.1)" rx="1.22" ry="0.80"/>
<path fill="#8abf32" d="
  M 295.84 374.27
  A 0.92 0.92 0.0 0 1 295.25 372.85
  C 297.60 369.39 299.32 366.83 299.60 363.35
  Q 299.77 361.23 300.19 358.70
  C 300.72 355.46 305.24 353.17 309.30 350.64
  C 333.51 335.55 351.60 311.75 362.68 285.20
  Q 363.61 282.96 365.31 282.23
  A 1.60 1.59 64.9 0 1 367.37 282.98
  Q 370.32 288.86 371.94 295.31
  C 373.84 302.91 371.17 306.32 366.70 313.79
  C 352.23 337.98 332.77 358.40 307.48 370.96
  C 303.86 372.76 299.27 374.94 295.84 374.27
  Z"
/>
<path fill="#9dcb30" d="
  M 270.98 340.82
  Q 270.91 341.19 270.89 341.22
  A 0.56 0.55 55.1 0 1 269.90 341.04
  Q 269.63 340.08 270.36 339.31
  C 278.02 331.16 289.62 315.35 288.05 304.23
  C 287.43 299.86 280.96 300.38 277.08 301.16
  A 0.80 0.79 75.9 0 1 276.17 300.61
  L 275.79 299.33
  Q 275.09 296.46 273.57 293.01
  A 1.81 1.81 0.0 0 1 274.25 290.75
  Q 276.07 289.58 275.93 287.13
  Q 280.33 285.68 286.47 285.67
  C 296.17 285.67 298.75 292.81 297.54 301.04
  C 295.71 313.40 286.14 326.01 276.70 334.22
  Q 274.02 336.55 271.10 339.23
  Q 270.71 339.60 270.72 339.99
  Q 270.73 340.36 270.98 340.82
  Z"
/>
<path fill="#46943a" d="
  M 275.93 287.13
  Q 276.07 289.58 274.25 290.75
  A 1.81 1.81 0.0 0 0 273.57 293.01
  Q 275.09 296.46 275.79 299.33
  L 271.58 306.55
  A 0.97 0.97 0.0 0 1 270.85 307.04
  Q 267.60 307.44 264.64 309.62
  Q 260.70 312.55 253.79 317.76
  Q 248.31 321.89 244.71 327.67
  Q 244.13 334.26 245.54 341.34
  Q 245.75 358.30 259.66 370.23
  L 241.30 383.28
  Q 234.06 378.86 229.00 373.72
  Q 218.14 356.92 214.18 338.56
  L 237.33 323.81
  A 1.70 1.66 -6.1 0 0 238.01 322.99
  C 239.88 318.10 242.36 313.33 246.86 310.79
  C 250.05 308.98 251.77 306.09 252.71 302.62
  Q 255.00 301.27 254.02 300.04
  Q 263.61 291.33 275.93 287.13
  Z"
/>
<ellipse fill="#9dcb30" cx="0.00" cy="0.00" transform="translate(215.55,289.61) rotate(-62.4)" rx="1.30" ry="1.08"/>
<path fill="#8abf32" d="
  M 239.63 294.43
  A 1.08 1.08 0.0 0 1 239.07 293.01
  L 239.14 292.86
  A 5.20 2.44 -66.6 0 1 243.44 289.06
  L 243.70 289.17
  A 5.20 2.44 -66.6 0 1 243.87 294.91
  L 243.81 295.06
  A 1.08 1.08 0.0 0 1 242.39 295.62
  L 239.63 294.43
  Z"
/>
<path fill="#8abf32" d="
  M 253.66 298.22
  Q 253.19 298.90 253.14 299.56
  Q 253.11 299.95 253.40 300.04
  Q 253.65 300.12 254.02 300.04
  Q 255.00 301.27 252.71 302.62
  L 246.87 299.30
  A 1.03 1.03 0.0 0 1 246.36 298.55
  Q 245.81 294.98 249.25 293.87
  A 1.01 1.00 -28.7 0 1 250.32 294.18
  L 253.66 298.22
  Z"
/>
<path fill="#225e31" d="
  M 275.79 299.33
  L 276.17 300.61
  A 0.80 0.79 75.9 0 0 277.08 301.16
  C 280.96 300.38 287.43 299.86 288.05 304.23
  C 289.62 315.35 278.02 331.16 270.36 339.31
  Q 269.63 340.08 269.90 341.04
  A 0.56 0.55 55.1 0 0 270.89 341.22
  Q 270.91 341.19 270.98 340.82
  C 275.52 343.36 281.58 343.74 286.26 341.10
  C 288.28 339.96 290.02 338.91 290.90 338.87
  A 0.99 0.99 0.0 0 1 291.89 340.16
  C 290.66 343.95 285.30 345.21 281.96 346.70
  Q 281.41 346.94 281.33 347.29
  A 0.75 0.73 5.8 0 0 282.07 348.18
  Q 289.15 348.07 296.29 348.19
  A 0.62 0.62 0.0 0 1 296.73 349.24
  L 296.03 349.97
  A 3.65 3.63 -66.7 0 1 293.22 351.10
  C 288.83 350.87 282.09 349.89 279.45 351.72
  A 0.91 0.91 0.0 0 0 279.76 353.35
  Q 281.78 353.85 284.73 355.03
  Q 290.21 357.21 290.06 363.18
  A 0.45 0.45 0.0 0 1 289.62 363.62
  C 287.05 363.66 284.76 361.04 282.28 358.81
  Q 281.51 358.12 280.76 357.93
  A 0.56 0.56 0.0 0 0 280.13 358.76
  L 281.57 361.25
  A 1.05 1.04 55.7 0 1 281.32 362.59
  Q 277.23 365.91 274.72 361.78
  Q 273.04 359.01 271.11 354.50
  A 1.95 1.94 -15.4 0 0 269.06 353.34
  Q 262.05 354.31 256.89 349.88
  C 253.61 347.08 254.46 344.22 256.68 340.65
  Q 262.67 331.00 266.47 322.97
  A 1.54 1.28 66.5 0 0 266.57 322.63
  L 266.88 320.36
  A 1.32 1.32 0.0 0 0 265.06 318.97
  L 244.71 327.67
  Q 248.31 321.89 253.79 317.76
  Q 260.70 312.55 264.64 309.62
  Q 267.60 307.44 270.85 307.04
  A 0.97 0.97 0.0 0 0 271.58 306.55
  L 275.79 299.33
  Z"
/>
<path fill="#9dcb30" d="
  M 234.15 308.03
  L 232.93 305.10
  A 1.39 1.38 80.5 0 1 234.29 303.19
  Q 236.19 303.30 236.25 301.87
  A 1.28 1.21 -62.9 0 1 238.47 301.08
  Q 238.87 301.65 238.10 302.10
  Q 237.58 302.40 236.28 302.92
  A 1.26 1.25 -6.9 0 0 235.49 303.92
  L 234.95 307.93
  A 0.42 0.42 0.0 0 1 234.15 308.03
  Z"
/>
<ellipse fill="#8abf32" cx="0.00" cy="0.00" transform="translate(245.79,303.39) rotate(-27.1)" rx="2.60" ry="2.18"/>
<path fill="#8abf32" d="
  M 259.66 370.23
  Q 245.75 358.30 245.54 341.34
  Q 249.62 352.20 256.96 360.05
  C 269.74 373.73 287.04 381.24 305.76 380.25
  C 345.24 378.16 370.44 345.48 375.90 308.55
  Q 376.90 313.84 375.59 319.80
  Q 370.87 341.22 356.72 357.51
  Q 331.65 386.37 293.26 383.48
  Q 274.38 382.05 259.66 370.23
  Z"
/>
<path fill="#8abf32" d="
  M 214.18 338.56
  Q 218.14 356.92 229.00 373.72
  C 216.66 363.25 207.05 347.24 202.46 331.30
  Q 200.73 325.32 200.60 318.07
  L 210.78 322.91
  A 2.31 2.29 -81.8 0 1 212.05 324.62
  L 214.18 338.56
  Z"
/>
<path fill="#225e31" d="
  M 389.19 321.96
  L 389.08 323.29
  Q 388.95 322.52 389.19 321.96
  Z"
/>
<path fill="#225e31" d="
  M 388.97 323.54
  L 388.89 325.01
  Q 388.80 324.22 388.97 323.54
  Z"
/>
<path fill="#225e31" d="
  M 144.14 350.89
  Q 149.55 351.41 153.90 347.92
  Q 157.37 345.14 163.67 339.16
  Q 166.92 336.08 170.44 339.06
  Q 182.04 348.88 194.52 355.40
  A 2.56 2.53 -88.3 0 1 195.66 356.62
  Q 203.44 374.18 218.32 387.07
  A 0.32 0.31 -27.1 0 1 218.14 387.62
  Q 217.24 387.70 215.27 387.45
  Q 213.34 387.21 204.02 384.92
  Q 169.27 376.37 144.00 351.19
  A 0.18 0.17 70.5 0 1 144.14 350.89
  Z"
/>
</svg>
